solid OpenSCAD_Model
  facet normal 0 0 -1
    outer loop
      vertex -43.5 1.15796 0
      vertex 16.5 41 0
      vertex 16.5 1.15796 0
    endloop
  endfacet
  facet normal -0 0 -1
    outer loop
      vertex 16.5 41 0
      vertex -43.5 1.15796 0
      vertex -43.5 41 0
    endloop
  endfacet
  facet normal 0 0 1
    outer loop
      vertex -38.7524 18.65 39
      vertex -40.5 17.158 39
      vertex -37.1184 17.158 39
    endloop
  endfacet
  facet normal 0 0 1
    outer loop
      vertex -40.5 17.158 39
      vertex -43.5 18.65 39
      vertex -40.5 4.15796 39
    endloop
  endfacet
  facet normal -0 0 1
    outer loop
      vertex -43.5 18.65 39
      vertex -40.5 17.158 39
      vertex -38.7524 18.65 39
    endloop
  endfacet
  facet normal 0 0 1
    outer loop
      vertex -6 41 39
      vertex -7.5 17.158 39
      vertex -6 11 39
    endloop
  endfacet
  facet normal 0 0 1
    outer loop
      vertex -6 41 39
      vertex -8 33.35 39
      vertex -7.5 17.158 39
    endloop
  endfacet
  facet normal -0 0 1
    outer loop
      vertex -43.5 41 39
      vertex -8 33.35 39
      vertex -6 41 39
    endloop
  endfacet
  facet normal 0 0 1
    outer loop
      vertex -8 33.35 39
      vertex -43.5 41 39
      vertex -43.5 33.35 39
    endloop
  endfacet
  facet normal 0 0 1
    outer loop
      vertex 6 11 39
      vertex 16.5 41 39
      vertex 6 41 39
    endloop
  endfacet
  facet normal 0 0 1
    outer loop
      vertex 16.5 41 39
      vertex 6 11 39
      vertex 16.5 1.15796 39
    endloop
  endfacet
  facet normal 0 0 1
    outer loop
      vertex -7.5 4.15796 39
      vertex 6 11 39
      vertex -6 11 39
    endloop
  endfacet
  facet normal 0 0 1
    outer loop
      vertex -7.5 4.15796 39
      vertex -6 11 39
      vertex -7.5 17.158 39
    endloop
  endfacet
  facet normal 0 0 1
    outer loop
      vertex 6 11 39
      vertex -7.5 4.15796 39
      vertex 16.5 1.15796 39
    endloop
  endfacet
  facet normal 0 0 1
    outer loop
      vertex -43.5 1.15796 39
      vertex -7.5 4.15796 39
      vertex -40.5 4.15796 39
    endloop
  endfacet
  facet normal 0 0 1
    outer loop
      vertex -7.5 4.15796 39
      vertex -43.5 1.15796 39
      vertex 16.5 1.15796 39
    endloop
  endfacet
  facet normal 0 0 1
    outer loop
      vertex -43.5 1.15796 39
      vertex -40.5 4.15796 39
      vertex -43.5 18.65 39
    endloop
  endfacet
  facet normal -0 0 1
    outer loop
      vertex -8 18.65 39
      vertex -7.5 17.158 39
      vertex -8 33.35 39
    endloop
  endfacet
  facet normal -0 0 1
    outer loop
      vertex -20.9984 18.65 39
      vertex -7.5 17.158 39
      vertex -8 18.65 39
    endloop
  endfacet
  facet normal 0 0 1
    outer loop
      vertex -7.5 17.158 39
      vertex -20.9984 18.65 39
      vertex -22.6789 17.158 39
    endloop
  endfacet
  facet normal 0 1 0
    outer loop
      vertex 16.5 41 39
      vertex 6 41 38.95
      vertex 6 41 39
    endloop
  endfacet
  facet normal 0 1 0
    outer loop
      vertex 6 41 38.95
      vertex 16.5 41 0
      vertex -6 41 38.95
    endloop
  endfacet
  facet normal 0 1 -0
    outer loop
      vertex 16.5 41 0
      vertex 6 41 38.95
      vertex 16.5 41 39
    endloop
  endfacet
  facet normal 0 1 -0
    outer loop
      vertex -6 41 38.95
      vertex -43.5 41 39
      vertex -6 41 39
    endloop
  endfacet
  facet normal 0 1 0
    outer loop
      vertex -43.5 41 0
      vertex -6 41 38.95
      vertex 16.5 41 0
    endloop
  endfacet
  facet normal 0 1 0
    outer loop
      vertex -6 41 38.95
      vertex -43.5 41 0
      vertex -43.5 41 39
    endloop
  endfacet
  facet normal -1 0 0
    outer loop
      vertex 3.5 38.5 12
      vertex 3.5 33.35 23.825
      vertex 3.5 38.5 36.95
    endloop
  endfacet
  facet normal -1 0 0
    outer loop
      vertex 3.5 38.5 12
      vertex 3.5 18.65 23.825
      vertex 3.5 33.35 23.825
    endloop
  endfacet
  facet normal -1 0 0
    outer loop
      vertex 3.5 13.5 36.95
      vertex 3.5 18.65 23.825
      vertex 3.5 13.5 12
    endloop
  endfacet
  facet normal -1 0 0
    outer loop
      vertex 3.5 13.5 12
      vertex 3.5 18.65 23.825
      vertex 3.5 38.5 12
    endloop
  endfacet
  facet normal -1 0 0
    outer loop
      vertex 3.5 33.35 32.975
      vertex 3.5 38.5 36.95
      vertex 3.5 33.35 23.825
    endloop
  endfacet
  facet normal -1 0 0
    outer loop
      vertex 3.5 18.65 32.975
      vertex 3.5 38.5 36.95
      vertex 3.5 33.35 32.975
    endloop
  endfacet
  facet normal -1 0 0
    outer loop
      vertex 3.5 18.65 32.975
      vertex 3.5 13.5 36.95
      vertex 3.5 38.5 36.95
    endloop
  endfacet
  facet normal -1 0 0
    outer loop
      vertex 3.5 18.65 23.825
      vertex 3.5 13.5 36.95
      vertex 3.5 18.65 32.975
    endloop
  endfacet
  facet normal -0 0 1
    outer loop
      vertex -3.5 38.5 12
      vertex 3.5 13.5 12
      vertex 3.5 38.5 12
    endloop
  endfacet
  facet normal 0 0 1
    outer loop
      vertex 3.5 13.5 12
      vertex -3.5 38.5 12
      vertex -3.5 13.5 12
    endloop
  endfacet
  facet normal 1 0 0
    outer loop
      vertex -3.5 33.35 23.825
      vertex -3.5 38.5 36.95
      vertex -3.5 33.35 32.975
    endloop
  endfacet
  facet normal 1 0 0
    outer loop
      vertex -3.5 38.5 36.95
      vertex -3.5 18.65 32.975
      vertex -3.5 33.35 32.975
    endloop
  endfacet
  facet normal 1 0 0
    outer loop
      vertex -3.5 18.65 32.975
      vertex -3.5 13.5 36.95
      vertex -3.5 18.65 23.825
    endloop
  endfacet
  facet normal 1 -0 0
    outer loop
      vertex -3.5 13.5 36.95
      vertex -3.5 18.65 32.975
      vertex -3.5 38.5 36.95
    endloop
  endfacet
  facet normal 1 0 0
    outer loop
      vertex -3.5 38.5 36.95
      vertex -3.5 33.35 23.825
      vertex -3.5 38.5 12
    endloop
  endfacet
  facet normal 1 -0 0
    outer loop
      vertex -3.5 18.65 23.825
      vertex -3.5 38.5 12
      vertex -3.5 33.35 23.825
    endloop
  endfacet
  facet normal 1 0 0
    outer loop
      vertex -3.5 18.65 23.825
      vertex -3.5 13.5 12
      vertex -3.5 38.5 12
    endloop
  endfacet
  facet normal 1 0 0
    outer loop
      vertex -3.5 13.5 12
      vertex -3.5 18.65 23.825
      vertex -3.5 13.5 36.95
    endloop
  endfacet
  facet normal 0 -1 0
    outer loop
      vertex -3.5 38.5 12
      vertex 3.5 38.5 36.95
      vertex -3.5 38.5 36.95
    endloop
  endfacet
  facet normal 0 -1 -0
    outer loop
      vertex 3.5 38.5 36.95
      vertex -3.5 38.5 12
      vertex 3.5 38.5 12
    endloop
  endfacet
  facet normal 0 1 -0
    outer loop
      vertex 3.5 13.5 12
      vertex -3.5 13.5 36.95
      vertex 3.5 13.5 36.95
    endloop
  endfacet
  facet normal 0 1 0
    outer loop
      vertex -3.5 13.5 36.95
      vertex 3.5 13.5 12
      vertex -3.5 13.5 12
    endloop
  endfacet
  facet normal -0.624695 0 0.780869
    outer loop
      vertex 3.5 38.5 36.95
      vertex 6 11 38.95
      vertex 6 41 38.95
    endloop
  endfacet
  facet normal -0.624695 0 0.780869
    outer loop
      vertex 6 11 38.95
      vertex 3.5 38.5 36.95
      vertex 3.5 13.5 36.95
    endloop
  endfacet
  facet normal -1 0 0
    outer loop
      vertex 6 11 38.95
      vertex 6 41 39
      vertex 6 41 38.95
    endloop
  endfacet
  facet normal -1 -0 0
    outer loop
      vertex 6 41 39
      vertex 6 11 38.95
      vertex 6 11 39
    endloop
  endfacet
  facet normal 1 -0 0
    outer loop
      vertex -6 11 39
      vertex -6 41 38.95
      vertex -6 41 39
    endloop
  endfacet
  facet normal 1 0 0
    outer loop
      vertex -6 41 38.95
      vertex -6 11 39
      vertex -6 11 38.95
    endloop
  endfacet
  facet normal -0 0.624695 0.780869
    outer loop
      vertex -3.5 13.5 36.95
      vertex 6 11 38.95
      vertex 3.5 13.5 36.95
    endloop
  endfacet
  facet normal 0 0.624695 0.780869
    outer loop
      vertex 6 11 38.95
      vertex -3.5 13.5 36.95
      vertex -6 11 38.95
    endloop
  endfacet
  facet normal 0 -0.624695 0.780869
    outer loop
      vertex 6 41 38.95
      vertex -3.5 38.5 36.95
      vertex 3.5 38.5 36.95
    endloop
  endfacet
  facet normal 0 -0.624695 0.780869
    outer loop
      vertex -3.5 38.5 36.95
      vertex 6 41 38.95
      vertex -6 41 38.95
    endloop
  endfacet
  facet normal 0.624695 0 0.780869
    outer loop
      vertex -6 41 38.95
      vertex -3.5 13.5 36.95
      vertex -3.5 38.5 36.95
    endloop
  endfacet
  facet normal 0.624695 0 0.780869
    outer loop
      vertex -3.5 13.5 36.95
      vertex -6 41 38.95
      vertex -6 11 38.95
    endloop
  endfacet
  facet normal 0 1 -0
    outer loop
      vertex 6 11 38.95
      vertex -6 11 39
      vertex 6 11 39
    endloop
  endfacet
  facet normal 0 1 0
    outer loop
      vertex -6 11 39
      vertex 6 11 38.95
      vertex -6 11 38.95
    endloop
  endfacet
  facet normal -1 0 0
    outer loop
      vertex 9.5 18.65 23.825
      vertex 9.5 33.35 32.975
      vertex 9.5 33.35 23.825
    endloop
  endfacet
  facet normal -1 -0 0
    outer loop
      vertex 9.5 33.35 32.975
      vertex 9.5 18.65 23.825
      vertex 9.5 18.65 32.975
    endloop
  endfacet
  facet normal 0 0 -1
    outer loop
      vertex 3.5 18.65 32.975
      vertex 9.5 33.35 32.975
      vertex 9.5 18.65 32.975
    endloop
  endfacet
  facet normal -0 0 -1
    outer loop
      vertex 9.5 33.35 32.975
      vertex 3.5 18.65 32.975
      vertex 3.5 33.35 32.975
    endloop
  endfacet
  facet normal 0 0 -1
    outer loop
      vertex -8 18.65 32.975
      vertex -3.5 33.35 32.975
      vertex -3.5 18.65 32.975
    endloop
  endfacet
  facet normal -0 0 -1
    outer loop
      vertex -3.5 33.35 32.975
      vertex -8 18.65 32.975
      vertex -8 33.35 32.975
    endloop
  endfacet
  facet normal -0 0 1
    outer loop
      vertex 3.5 33.35 23.825
      vertex 9.5 18.65 23.825
      vertex 9.5 33.35 23.825
    endloop
  endfacet
  facet normal 0 0 1
    outer loop
      vertex 9.5 18.65 23.825
      vertex 3.5 33.35 23.825
      vertex 3.5 18.65 23.825
    endloop
  endfacet
  facet normal 0 0 1
    outer loop
      vertex -3.5 33.35 23.825
      vertex -21.6456 28 23.825
      vertex -3.5 18.65 23.825
    endloop
  endfacet
  facet normal -0 0 1
    outer loop
      vertex -43.5 33.35 23.825
      vertex -21.6456 28 23.825
      vertex -3.5 33.35 23.825
    endloop
  endfacet
  facet normal 0 0 1
    outer loop
      vertex -38.3544 28 23.825
      vertex -43.5 33.35 23.825
      vertex -38.3544 24 23.825
    endloop
  endfacet
  facet normal 0 0 1
    outer loop
      vertex -21.6456 28 23.825
      vertex -43.5 33.35 23.825
      vertex -38.3544 28 23.825
    endloop
  endfacet
  facet normal -0 0 1
    outer loop
      vertex -21.6456 24 23.825
      vertex -3.5 18.65 23.825
      vertex -21.6456 28 23.825
    endloop
  endfacet
  facet normal 0 0 1
    outer loop
      vertex -43.5 18.65 23.825
      vertex -21.6456 24 23.825
      vertex -38.3544 24 23.825
    endloop
  endfacet
  facet normal 0 0 1
    outer loop
      vertex -21.6456 24 23.825
      vertex -43.5 18.65 23.825
      vertex -3.5 18.65 23.825
    endloop
  endfacet
  facet normal 0 0 1
    outer loop
      vertex -43.5 18.65 23.825
      vertex -38.3544 24 23.825
      vertex -43.5 33.35 23.825
    endloop
  endfacet
  facet normal 0 -1 0
    outer loop
      vertex 3.5 33.35 23.825
      vertex 9.5 33.35 32.975
      vertex 3.5 33.35 32.975
    endloop
  endfacet
  facet normal 0 -1 -0
    outer loop
      vertex 9.5 33.35 32.975
      vertex 3.5 33.35 23.825
      vertex 9.5 33.35 23.825
    endloop
  endfacet
  facet normal 0 -1 0
    outer loop
      vertex -43.5 33.35 39
      vertex -8 33.35 32.975
      vertex -8 33.35 39
    endloop
  endfacet
  facet normal 0 -1 0
    outer loop
      vertex -43.5 33.35 23.825
      vertex -8 33.35 32.975
      vertex -43.5 33.35 39
    endloop
  endfacet
  facet normal 0 -1 0
    outer loop
      vertex -3.5 33.35 23.825
      vertex -8 33.35 32.975
      vertex -43.5 33.35 23.825
    endloop
  endfacet
  facet normal 0 -1 0
    outer loop
      vertex -8 33.35 32.975
      vertex -3.5 33.35 23.825
      vertex -3.5 33.35 32.975
    endloop
  endfacet
  facet normal 0 1 -0
    outer loop
      vertex 9.5 18.65 23.825
      vertex 3.5 18.65 32.975
      vertex 9.5 18.65 32.975
    endloop
  endfacet
  facet normal 0 1 0
    outer loop
      vertex 3.5 18.65 32.975
      vertex 9.5 18.65 23.825
      vertex 3.5 18.65 23.825
    endloop
  endfacet
  facet normal 0 1 -0
    outer loop
      vertex -3.5 18.65 23.825
      vertex -8 18.65 32.975
      vertex -3.5 18.65 32.975
    endloop
  endfacet
  facet normal 0 1 0
    outer loop
      vertex -43.5 18.65 23.825
      vertex -20.9984 18.65 28
      vertex -3.5 18.65 23.825
    endloop
  endfacet
  facet normal 0 1 0
    outer loop
      vertex -8 18.65 32.975
      vertex -3.5 18.65 23.825
      vertex -20.9984 18.65 28
    endloop
  endfacet
  facet normal 0 1 -0
    outer loop
      vertex -8 18.65 32.975
      vertex -20.9984 18.65 39
      vertex -8 18.65 39
    endloop
  endfacet
  facet normal 0 1 0
    outer loop
      vertex -20.9984 18.65 39
      vertex -8 18.65 32.975
      vertex -20.9984 18.65 28
    endloop
  endfacet
  facet normal 0 1 -0
    outer loop
      vertex -38.7524 18.65 28
      vertex -43.5 18.65 39
      vertex -38.7524 18.65 39
    endloop
  endfacet
  facet normal 0 1 0
    outer loop
      vertex -38.7524 18.65 28
      vertex -43.5 18.65 23.825
      vertex -43.5 18.65 39
    endloop
  endfacet
  facet normal 0 1 0
    outer loop
      vertex -20.9984 18.65 28
      vertex -43.5 18.65 23.825
      vertex -38.7524 18.65 28
    endloop
  endfacet
  facet normal -1 0 0
    outer loop
      vertex -21.6456 24 20.825
      vertex -21.6456 28 23.825
      vertex -21.6456 28 20.825
    endloop
  endfacet
  facet normal -1 -0 0
    outer loop
      vertex -21.6456 28 23.825
      vertex -21.6456 24 20.825
      vertex -21.6456 24 23.825
    endloop
  endfacet
  facet normal -0 0 1
    outer loop
      vertex -38.3544 28 20.825
      vertex -21.6456 24 20.825
      vertex -21.6456 28 20.825
    endloop
  endfacet
  facet normal 0 0 1
    outer loop
      vertex -21.6456 24 20.825
      vertex -38.3544 28 20.825
      vertex -38.3544 24 20.825
    endloop
  endfacet
  facet normal 1 -0 0
    outer loop
      vertex -38.3544 24 23.825
      vertex -38.3544 28 20.825
      vertex -38.3544 28 23.825
    endloop
  endfacet
  facet normal 1 0 0
    outer loop
      vertex -38.3544 28 20.825
      vertex -38.3544 24 23.825
      vertex -38.3544 24 20.825
    endloop
  endfacet
  facet normal 0 -1 0
    outer loop
      vertex -38.3544 28 20.825
      vertex -21.6456 28 23.825
      vertex -38.3544 28 23.825
    endloop
  endfacet
  facet normal 0 -1 -0
    outer loop
      vertex -21.6456 28 23.825
      vertex -38.3544 28 20.825
      vertex -21.6456 28 20.825
    endloop
  endfacet
  facet normal 0 1 -0
    outer loop
      vertex -21.6456 24 20.825
      vertex -38.3544 24 23.825
      vertex -21.6456 24 23.825
    endloop
  endfacet
  facet normal 0 1 0
    outer loop
      vertex -38.3544 24 23.825
      vertex -21.6456 24 20.825
      vertex -38.3544 24 20.825
    endloop
  endfacet
  facet normal 0.997886 -0.0649964 0
    outer loop
      vertex -38.55 10.658 17.7
      vertex -38.5432 10.7624 11.7
      vertex -38.5432 10.7624 17.7
    endloop
  endfacet
  facet normal 0.997886 -0.0649964 0
    outer loop
      vertex -38.5432 10.7624 11.7
      vertex -38.55 10.658 17.7
      vertex -38.55 10.658 11.7
    endloop
  endfacet
  facet normal 0.947117 0.320889 0
    outer loop
      vertex -38.5 10.3839 17.7
      vertex -38.5227 10.4509 11.7
      vertex -38.5227 10.4509 17.7
    endloop
  endfacet
  facet normal 0.947117 0.320889 0
    outer loop
      vertex -38.5227 10.4509 11.7
      vertex -38.5 10.3839 17.7
      vertex -38.5 10.3839 11.7
    endloop
  endfacet
  facet normal 0 0 1
    outer loop
      vertex -38.5432 10.7624 11.7
      vertex -38.5 10.932 11.7
      vertex -38.5227 10.865 11.7
    endloop
  endfacet
  facet normal 0 0 1
    outer loop
      vertex -38.5 10.932 11.7
      vertex -38.5432 10.7624 11.7
      vertex -38.5 10.3839 11.7
    endloop
  endfacet
  facet normal -0 0 1
    outer loop
      vertex -38.5432 10.5535 11.7
      vertex -38.5 10.3839 11.7
      vertex -38.5432 10.7624 11.7
    endloop
  endfacet
  facet normal 0 0 1
    outer loop
      vertex -38.5 10.3839 11.7
      vertex -38.5432 10.5535 11.7
      vertex -38.5227 10.4509 11.7
    endloop
  endfacet
  facet normal 0 -0 1
    outer loop
      vertex -38.5432 10.5535 11.7
      vertex -38.5432 10.7624 11.7
      vertex -38.55 10.658 11.7
    endloop
  endfacet
  facet normal 0.980617 -0.195932 0
    outer loop
      vertex -38.5432 10.7624 17.7
      vertex -38.5227 10.865 11.7
      vertex -38.5227 10.865 17.7
    endloop
  endfacet
  facet normal 0.980617 -0.195932 0
    outer loop
      vertex -38.5227 10.865 11.7
      vertex -38.5432 10.7624 17.7
      vertex -38.5432 10.7624 11.7
    endloop
  endfacet
  facet normal 0.99789 0.0649344 0
    outer loop
      vertex -38.5432 10.5535 17.7
      vertex -38.55 10.658 11.7
      vertex -38.55 10.658 17.7
    endloop
  endfacet
  facet normal 0.99789 0.0649344 0
    outer loop
      vertex -38.55 10.658 11.7
      vertex -38.5432 10.5535 17.7
      vertex -38.5432 10.5535 11.7
    endloop
  endfacet
  facet normal 0.980617 0.195932 0
    outer loop
      vertex -38.5227 10.4509 17.7
      vertex -38.5432 10.5535 11.7
      vertex -38.5432 10.5535 17.7
    endloop
  endfacet
  facet normal 0.980617 0.195932 0
    outer loop
      vertex -38.5432 10.5535 11.7
      vertex -38.5227 10.4509 17.7
      vertex -38.5227 10.4509 11.7
    endloop
  endfacet
  facet normal 0.947117 -0.320889 0
    outer loop
      vertex -38.5227 10.865 17.7
      vertex -38.5 10.932 11.7
      vertex -38.5 10.932 17.7
    endloop
  endfacet
  facet normal 0.947117 -0.320889 0
    outer loop
      vertex -38.5 10.932 11.7
      vertex -38.5227 10.865 17.7
      vertex -38.5227 10.865 11.7
    endloop
  endfacet
  facet normal -0.980764 -0.195197 0
    outer loop
      vertex -9.45684 10.7624 11.7
      vertex -9.47726 10.865 17.7
      vertex -9.47726 10.865 11.7
    endloop
  endfacet
  facet normal -0.980764 -0.195197 0
    outer loop
      vertex -9.47726 10.865 17.7
      vertex -9.45684 10.7624 11.7
      vertex -9.45684 10.7624 17.7
    endloop
  endfacet
  facet normal -0.997861 -0.0653771 0
    outer loop
      vertex -9.45 10.658 11.7
      vertex -9.45684 10.7624 17.7
      vertex -9.45684 10.7624 11.7
    endloop
  endfacet
  facet normal -0.997861 -0.0653771 0
    outer loop
      vertex -9.45684 10.7624 17.7
      vertex -9.45 10.658 11.7
      vertex -9.45 10.658 17.7
    endloop
  endfacet
  facet normal -0.94693 -0.32144 0
    outer loop
      vertex -9.47726 10.865 11.7
      vertex -9.5109 10.9641 17.7
      vertex -9.5109 10.9641 11.7
    endloop
  endfacet
  facet normal -0.94693 -0.32144 0
    outer loop
      vertex -9.5109 10.9641 17.7
      vertex -9.47726 10.865 11.7
      vertex -9.47726 10.865 17.7
    endloop
  endfacet
  facet normal 0.555758 0.831344 -0
    outer loop
      vertex -10.65 9.96514 11.7
      vertex -10.737 10.0233 17.7
      vertex -10.65 9.96514 17.7
    endloop
  endfacet
  facet normal 0.555758 0.831344 0
    outer loop
      vertex -10.737 10.0233 17.7
      vertex -10.65 9.96514 11.7
      vertex -10.737 10.0233 11.7
    endloop
  endfacet
  facet normal 0.896897 -0.44224 0
    outer loop
      vertex -10.9891 10.9641 17.7
      vertex -10.9428 11.058 11.7
      vertex -10.9428 11.058 17.7
    endloop
  endfacet
  facet normal 0.896897 -0.44224 0
    outer loop
      vertex -10.9428 11.058 11.7
      vertex -10.9891 10.9641 17.7
      vertex -10.9891 10.9641 11.7
    endloop
  endfacet
  facet normal -0.980764 0.195197 0
    outer loop
      vertex -9.47726 10.4509 11.7
      vertex -9.45684 10.5535 17.7
      vertex -9.45684 10.5535 11.7
    endloop
  endfacet
  facet normal -0.980764 0.195197 0
    outer loop
      vertex -9.45684 10.5535 17.7
      vertex -9.47726 10.4509 11.7
      vertex -9.47726 10.4509 17.7
    endloop
  endfacet
  facet normal 0.556022 -0.831167 0
    outer loop
      vertex -10.737 11.2926 11.7
      vertex -10.65 11.3508 17.7
      vertex -10.737 11.2926 17.7
    endloop
  endfacet
  facet normal 0.556022 -0.831167 0
    outer loop
      vertex -10.65 11.3508 17.7
      vertex -10.737 11.2926 11.7
      vertex -10.65 11.3508 11.7
    endloop
  endfacet
  facet normal 0.997886 -0.0649964 0
    outer loop
      vertex -11.05 10.658 17.7
      vertex -11.0432 10.7624 11.7
      vertex -11.0432 10.7624 17.7
    endloop
  endfacet
  facet normal 0.997886 -0.0649964 0
    outer loop
      vertex -11.0432 10.7624 11.7
      vertex -11.05 10.658 17.7
      vertex -11.05 10.658 11.7
    endloop
  endfacet
  facet normal -0.321243 -0.946997 0
    outer loop
      vertex -10.0429 11.4307 11.7
      vertex -9.94385 11.3971 17.7
      vertex -10.0429 11.4307 17.7
    endloop
  endfacet
  facet normal -0.321243 -0.946997 -0
    outer loop
      vertex -9.94385 11.3971 17.7
      vertex -10.0429 11.4307 11.7
      vertex -9.94385 11.3971 11.7
    endloop
  endfacet
  facet normal -0.94693 0.32144 0
    outer loop
      vertex -9.5109 10.3518 11.7
      vertex -9.47726 10.4509 17.7
      vertex -9.47726 10.4509 11.7
    endloop
  endfacet
  facet normal -0.94693 0.32144 0
    outer loop
      vertex -9.47726 10.4509 17.7
      vertex -9.5109 10.3518 11.7
      vertex -9.5109 10.3518 17.7
    endloop
  endfacet
  facet normal -0.442276 0.896879 0
    outer loop
      vertex -9.85 9.96514 11.7
      vertex -9.94385 9.91886 17.7
      vertex -9.85 9.96514 17.7
    endloop
  endfacet
  facet normal -0.442276 0.896879 0
    outer loop
      vertex -9.94385 9.91886 17.7
      vertex -9.85 9.96514 11.7
      vertex -9.94385 9.91886 11.7
    endloop
  endfacet
  facet normal 0.947046 0.321097 0
    outer loop
      vertex -10.9891 10.3518 17.7
      vertex -11.0227 10.4509 11.7
      vertex -11.0227 10.4509 17.7
    endloop
  endfacet
  facet normal 0.947046 0.321097 0
    outer loop
      vertex -11.0227 10.4509 11.7
      vertex -10.9891 10.3518 17.7
      vertex -10.9891 10.3518 11.7
    endloop
  endfacet
  facet normal -0.896973 -0.442086 0
    outer loop
      vertex -9.5109 10.9641 11.7
      vertex -9.55718 11.058 17.7
      vertex -9.55718 11.058 11.7
    endloop
  endfacet
  facet normal -0.896973 -0.442086 0
    outer loop
      vertex -9.55718 11.058 17.7
      vertex -9.5109 10.9641 11.7
      vertex -9.5109 10.9641 17.7
    endloop
  endfacet
  facet normal -0.19483 -0.980837 0
    outer loop
      vertex -10.1456 11.4511 11.7
      vertex -10.0429 11.4307 17.7
      vertex -10.1456 11.4511 17.7
    endloop
  endfacet
  facet normal -0.19483 -0.980837 -0
    outer loop
      vertex -10.0429 11.4307 17.7
      vertex -10.1456 11.4511 11.7
      vertex -10.0429 11.4307 11.7
    endloop
  endfacet
  facet normal -0.555978 -0.831197 0
    outer loop
      vertex -9.85 11.3508 11.7
      vertex -9.76299 11.2926 17.7
      vertex -9.85 11.3508 17.7
    endloop
  endfacet
  facet normal -0.555978 -0.831197 -0
    outer loop
      vertex -9.76299 11.2926 17.7
      vertex -9.85 11.3508 11.7
      vertex -9.76299 11.2926 11.7
    endloop
  endfacet
  facet normal -0.831432 0.555626 0
    outer loop
      vertex -9.61532 10.171 11.7
      vertex -9.55718 10.258 17.7
      vertex -9.55718 10.258 11.7
    endloop
  endfacet
  facet normal -0.831432 0.555626 0
    outer loop
      vertex -9.55718 10.258 17.7
      vertex -9.61532 10.171 11.7
      vertex -9.61532 10.171 17.7
    endloop
  endfacet
  facet normal 0 0 1
    outer loop
      vertex -9.45684 10.7624 11.7
      vertex -9.45684 10.5535 11.7
      vertex -9.45 10.658 11.7
    endloop
  endfacet
  facet normal 0 0 1
    outer loop
      vertex -9.47726 10.865 11.7
      vertex -9.45684 10.5535 11.7
      vertex -9.45684 10.7624 11.7
    endloop
  endfacet
  facet normal 0 0 1
    outer loop
      vertex -9.47726 10.865 11.7
      vertex -9.47726 10.4509 11.7
      vertex -9.45684 10.5535 11.7
    endloop
  endfacet
  facet normal 0 0 1
    outer loop
      vertex -9.5109 10.9641 11.7
      vertex -9.47726 10.4509 11.7
      vertex -9.47726 10.865 11.7
    endloop
  endfacet
  facet normal 0 0 1
    outer loop
      vertex -9.5109 10.9641 11.7
      vertex -9.5109 10.3518 11.7
      vertex -9.47726 10.4509 11.7
    endloop
  endfacet
  facet normal 0 0 1
    outer loop
      vertex -9.55718 11.058 11.7
      vertex -9.5109 10.3518 11.7
      vertex -9.5109 10.9641 11.7
    endloop
  endfacet
  facet normal 0 0 1
    outer loop
      vertex -9.55718 11.058 11.7
      vertex -9.55718 10.258 11.7
      vertex -9.5109 10.3518 11.7
    endloop
  endfacet
  facet normal 0 0 1
    outer loop
      vertex -9.61532 11.145 11.7
      vertex -9.55718 10.258 11.7
      vertex -9.55718 11.058 11.7
    endloop
  endfacet
  facet normal 0 0 1
    outer loop
      vertex -9.61532 11.145 11.7
      vertex -9.61532 10.171 11.7
      vertex -9.55718 10.258 11.7
    endloop
  endfacet
  facet normal 0 0 1
    outer loop
      vertex -9.68431 11.2236 11.7
      vertex -9.61532 10.171 11.7
      vertex -9.61532 11.145 11.7
    endloop
  endfacet
  facet normal 0 0 1
    outer loop
      vertex -9.68431 11.2236 11.7
      vertex -9.68431 10.0923 11.7
      vertex -9.61532 10.171 11.7
    endloop
  endfacet
  facet normal 0 0 1
    outer loop
      vertex -9.76299 11.2926 11.7
      vertex -9.68431 10.0923 11.7
      vertex -9.68431 11.2236 11.7
    endloop
  endfacet
  facet normal 0 0 1
    outer loop
      vertex -9.76299 11.2926 11.7
      vertex -9.76299 10.0233 11.7
      vertex -9.68431 10.0923 11.7
    endloop
  endfacet
  facet normal 0 0 1
    outer loop
      vertex -9.85 11.3508 11.7
      vertex -9.76299 10.0233 11.7
      vertex -9.76299 11.2926 11.7
    endloop
  endfacet
  facet normal 0 0 1
    outer loop
      vertex -9.85 11.3508 11.7
      vertex -9.85 9.96514 11.7
      vertex -9.76299 10.0233 11.7
    endloop
  endfacet
  facet normal 0 0 1
    outer loop
      vertex -9.94385 11.3971 11.7
      vertex -9.85 9.96514 11.7
      vertex -9.85 11.3508 11.7
    endloop
  endfacet
  facet normal 0 0 1
    outer loop
      vertex -9.94385 11.3971 11.7
      vertex -9.94385 9.91886 11.7
      vertex -9.85 9.96514 11.7
    endloop
  endfacet
  facet normal 0 0 1
    outer loop
      vertex -10.0429 11.4307 11.7
      vertex -9.94385 9.91886 11.7
      vertex -9.94385 11.3971 11.7
    endloop
  endfacet
  facet normal 0 0 1
    outer loop
      vertex -10.0429 11.4307 11.7
      vertex -10.0429 9.88522 11.7
      vertex -9.94385 9.91886 11.7
    endloop
  endfacet
  facet normal 0 0 1
    outer loop
      vertex -10.1456 11.4511 11.7
      vertex -10.0429 9.88522 11.7
      vertex -10.0429 11.4307 11.7
    endloop
  endfacet
  facet normal 0 0 1
    outer loop
      vertex -10.1456 11.4511 11.7
      vertex -10.1456 9.86481 11.7
      vertex -10.0429 9.88522 11.7
    endloop
  endfacet
  facet normal 0 0 1
    outer loop
      vertex -10.25 11.458 11.7
      vertex -10.1456 9.86481 11.7
      vertex -10.1456 11.4511 11.7
    endloop
  endfacet
  facet normal 0 0 1
    outer loop
      vertex -10.25 11.458 11.7
      vertex -10.25 9.85796 11.7
      vertex -10.1456 9.86481 11.7
    endloop
  endfacet
  facet normal -0 0 1
    outer loop
      vertex -10.3544 11.4511 11.7
      vertex -10.25 9.85796 11.7
      vertex -10.25 11.458 11.7
    endloop
  endfacet
  facet normal 0 0 1
    outer loop
      vertex -10.3544 11.4511 11.7
      vertex -10.3544 9.86481 11.7
      vertex -10.25 9.85796 11.7
    endloop
  endfacet
  facet normal -0 0 1
    outer loop
      vertex -10.4571 11.4307 11.7
      vertex -10.3544 9.86481 11.7
      vertex -10.3544 11.4511 11.7
    endloop
  endfacet
  facet normal 0 0 1
    outer loop
      vertex -10.4571 11.4307 11.7
      vertex -10.4571 9.88522 11.7
      vertex -10.3544 9.86481 11.7
    endloop
  endfacet
  facet normal -0 0 1
    outer loop
      vertex -10.5561 11.3971 11.7
      vertex -10.4571 9.88522 11.7
      vertex -10.4571 11.4307 11.7
    endloop
  endfacet
  facet normal 0 0 1
    outer loop
      vertex -10.5561 11.3971 11.7
      vertex -10.5561 9.91886 11.7
      vertex -10.4571 9.88522 11.7
    endloop
  endfacet
  facet normal -0 0 1
    outer loop
      vertex -10.65 11.3508 11.7
      vertex -10.5561 9.91886 11.7
      vertex -10.5561 11.3971 11.7
    endloop
  endfacet
  facet normal 0 0 1
    outer loop
      vertex -10.65 11.3508 11.7
      vertex -10.65 9.96514 11.7
      vertex -10.5561 9.91886 11.7
    endloop
  endfacet
  facet normal -0 0 1
    outer loop
      vertex -10.737 11.2926 11.7
      vertex -10.65 9.96514 11.7
      vertex -10.65 11.3508 11.7
    endloop
  endfacet
  facet normal 0 0 1
    outer loop
      vertex -10.737 11.2926 11.7
      vertex -10.737 10.0233 11.7
      vertex -10.65 9.96514 11.7
    endloop
  endfacet
  facet normal -0 0 1
    outer loop
      vertex -10.8157 11.2236 11.7
      vertex -10.737 10.0233 11.7
      vertex -10.737 11.2926 11.7
    endloop
  endfacet
  facet normal 0 0 1
    outer loop
      vertex -10.8157 11.2236 11.7
      vertex -10.8157 10.0923 11.7
      vertex -10.737 10.0233 11.7
    endloop
  endfacet
  facet normal -0 0 1
    outer loop
      vertex -10.8847 11.145 11.7
      vertex -10.8157 10.0923 11.7
      vertex -10.8157 11.2236 11.7
    endloop
  endfacet
  facet normal 0 0 1
    outer loop
      vertex -10.8847 11.145 11.7
      vertex -10.8847 10.171 11.7
      vertex -10.8157 10.0923 11.7
    endloop
  endfacet
  facet normal -0 0 1
    outer loop
      vertex -10.9428 11.058 11.7
      vertex -10.8847 10.171 11.7
      vertex -10.8847 11.145 11.7
    endloop
  endfacet
  facet normal 0 0 1
    outer loop
      vertex -10.9428 11.058 11.7
      vertex -10.9428 10.258 11.7
      vertex -10.8847 10.171 11.7
    endloop
  endfacet
  facet normal -0 0 1
    outer loop
      vertex -10.9891 10.9641 11.7
      vertex -10.9428 10.258 11.7
      vertex -10.9428 11.058 11.7
    endloop
  endfacet
  facet normal 0 0 1
    outer loop
      vertex -10.9891 10.9641 11.7
      vertex -10.9891 10.3518 11.7
      vertex -10.9428 10.258 11.7
    endloop
  endfacet
  facet normal -0 0 1
    outer loop
      vertex -11.0227 10.865 11.7
      vertex -10.9891 10.3518 11.7
      vertex -10.9891 10.9641 11.7
    endloop
  endfacet
  facet normal 0 0 1
    outer loop
      vertex -11.0227 10.865 11.7
      vertex -11.0227 10.4509 11.7
      vertex -10.9891 10.3518 11.7
    endloop
  endfacet
  facet normal -0 0 1
    outer loop
      vertex -11.0432 10.7624 11.7
      vertex -11.0227 10.4509 11.7
      vertex -11.0227 10.865 11.7
    endloop
  endfacet
  facet normal 0 0 1
    outer loop
      vertex -11.0432 10.7624 11.7
      vertex -11.0432 10.5535 11.7
      vertex -11.0227 10.4509 11.7
    endloop
  endfacet
  facet normal 0 -0 1
    outer loop
      vertex -11.0432 10.5535 11.7
      vertex -11.0432 10.7624 11.7
      vertex -11.05 10.658 11.7
    endloop
  endfacet
  facet normal 0.89671 0.442619 0
    outer loop
      vertex -10.9428 10.258 17.7
      vertex -10.9891 10.3518 11.7
      vertex -10.9891 10.3518 17.7
    endloop
  endfacet
  facet normal 0.89671 0.442619 0
    outer loop
      vertex -10.9891 10.3518 11.7
      vertex -10.9428 10.258 17.7
      vertex -10.9428 10.258 11.7
    endloop
  endfacet
  facet normal 0.0659481 -0.997823 0
    outer loop
      vertex -10.3544 11.4511 11.7
      vertex -10.25 11.458 17.7
      vertex -10.3544 11.4511 17.7
    endloop
  endfacet
  facet normal 0.0659481 -0.997823 0
    outer loop
      vertex -10.25 11.458 17.7
      vertex -10.3544 11.4511 11.7
      vertex -10.25 11.458 11.7
    endloop
  endfacet
  facet normal 0.75151 -0.659722 0
    outer loop
      vertex -10.8847 11.145 17.7
      vertex -10.8157 11.2236 11.7
      vertex -10.8157 11.2236 17.7
    endloop
  endfacet
  facet normal 0.75151 -0.659722 0
    outer loop
      vertex -10.8157 11.2236 11.7
      vertex -10.8847 11.145 17.7
      vertex -10.8847 11.145 11.7
    endloop
  endfacet
  facet normal 0.321731 0.946831 -0
    outer loop
      vertex -10.4571 9.88522 11.7
      vertex -10.5561 9.91886 17.7
      vertex -10.4571 9.88522 17.7
    endloop
  endfacet
  facet normal 0.321731 0.946831 0
    outer loop
      vertex -10.5561 9.91886 17.7
      vertex -10.4571 9.88522 11.7
      vertex -10.5561 9.91886 11.7
    endloop
  endfacet
  facet normal -0.751557 -0.659668 0
    outer loop
      vertex -9.61532 11.145 11.7
      vertex -9.68431 11.2236 17.7
      vertex -9.68431 11.2236 11.7
    endloop
  endfacet
  facet normal -0.751557 -0.659668 0
    outer loop
      vertex -9.68431 11.2236 17.7
      vertex -9.61532 11.145 11.7
      vertex -9.61532 11.145 17.7
    endloop
  endfacet
  facet normal 0.659248 -0.751925 0
    outer loop
      vertex -10.8157 11.2236 11.7
      vertex -10.737 11.2926 17.7
      vertex -10.8157 11.2236 17.7
    endloop
  endfacet
  facet normal 0.659248 -0.751925 0
    outer loop
      vertex -10.737 11.2926 17.7
      vertex -10.8157 11.2236 11.7
      vertex -10.737 11.2926 11.7
    endloop
  endfacet
  facet normal 0.44224 -0.896897 0
    outer loop
      vertex -10.65 11.3508 11.7
      vertex -10.5561 11.3971 17.7
      vertex -10.65 11.3508 17.7
    endloop
  endfacet
  facet normal 0.44224 -0.896897 0
    outer loop
      vertex -10.5561 11.3971 17.7
      vertex -10.65 11.3508 11.7
      vertex -10.5561 11.3971 11.7
    endloop
  endfacet
  facet normal -0.194922 0.980819 0
    outer loop
      vertex -10.0429 9.88522 11.7
      vertex -10.1456 9.86481 17.7
      vertex -10.0429 9.88522 17.7
    endloop
  endfacet
  facet normal -0.194922 0.980819 0
    outer loop
      vertex -10.1456 9.86481 17.7
      vertex -10.0429 9.88522 11.7
      vertex -10.1456 9.86481 11.7
    endloop
  endfacet
  facet normal 0.831609 -0.555362 0
    outer loop
      vertex -10.9428 11.058 17.7
      vertex -10.8847 11.145 11.7
      vertex -10.8847 11.145 17.7
    endloop
  endfacet
  facet normal 0.831609 -0.555362 0
    outer loop
      vertex -10.8847 11.145 11.7
      vertex -10.9428 11.058 17.7
      vertex -10.9428 11.058 11.7
    endloop
  endfacet
  facet normal -0.442429 -0.896803 0
    outer loop
      vertex -9.94385 11.3971 11.7
      vertex -9.85 11.3508 17.7
      vertex -9.94385 11.3971 17.7
    endloop
  endfacet
  facet normal -0.442429 -0.896803 -0
    outer loop
      vertex -9.85 11.3508 17.7
      vertex -9.94385 11.3971 11.7
      vertex -9.85 11.3508 11.7
    endloop
  endfacet
  facet normal -0.997865 0.0653148 0
    outer loop
      vertex -9.45684 10.5535 11.7
      vertex -9.45 10.658 17.7
      vertex -9.45 10.658 11.7
    endloop
  endfacet
  facet normal -0.997865 0.0653148 0
    outer loop
      vertex -9.45 10.658 17.7
      vertex -9.45684 10.5535 11.7
      vertex -9.45684 10.5535 17.7
    endloop
  endfacet
  facet normal -0.831432 -0.555626 0
    outer loop
      vertex -9.55718 11.058 11.7
      vertex -9.61532 11.145 17.7
      vertex -9.61532 11.145 11.7
    endloop
  endfacet
  facet normal -0.831432 -0.555626 0
    outer loop
      vertex -9.61532 11.145 17.7
      vertex -9.55718 11.058 11.7
      vertex -9.55718 11.058 17.7
    endloop
  endfacet
  facet normal 0.321388 -0.946948 0
    outer loop
      vertex -10.5561 11.3971 11.7
      vertex -10.4571 11.4307 17.7
      vertex -10.5561 11.3971 17.7
    endloop
  endfacet
  facet normal 0.321388 -0.946948 0
    outer loop
      vertex -10.4571 11.4307 17.7
      vertex -10.5561 11.3971 11.7
      vertex -10.4571 11.4307 11.7
    endloop
  endfacet
  facet normal 0.751925 0.659248 0
    outer loop
      vertex -10.8157 10.0923 17.7
      vertex -10.8847 10.171 11.7
      vertex -10.8847 10.171 17.7
    endloop
  endfacet
  facet normal 0.751925 0.659248 0
    outer loop
      vertex -10.8847 10.171 11.7
      vertex -10.8157 10.0923 17.7
      vertex -10.8157 10.0923 11.7
    endloop
  endfacet
  facet normal -0.659343 0.751842 0
    outer loop
      vertex -9.68431 10.0923 11.7
      vertex -9.76299 10.0233 17.7
      vertex -9.68431 10.0923 17.7
    endloop
  endfacet
  facet normal -0.659343 0.751842 0
    outer loop
      vertex -9.76299 10.0233 17.7
      vertex -9.68431 10.0923 11.7
      vertex -9.76299 10.0233 11.7
    endloop
  endfacet
  facet normal 0.0654722 0.997854 -0
    outer loop
      vertex -10.25 9.85796 11.7
      vertex -10.3544 9.86481 17.7
      vertex -10.25 9.85796 17.7
    endloop
  endfacet
  facet normal 0.0654722 0.997854 0
    outer loop
      vertex -10.3544 9.86481 17.7
      vertex -10.25 9.85796 11.7
      vertex -10.3544 9.86481 11.7
    endloop
  endfacet
  facet normal -0.321586 0.94688 0
    outer loop
      vertex -9.94385 9.91886 11.7
      vertex -10.0429 9.88522 17.7
      vertex -9.94385 9.91886 17.7
    endloop
  endfacet
  facet normal -0.321586 0.94688 0
    outer loop
      vertex -10.0429 9.88522 17.7
      vertex -9.94385 9.91886 11.7
      vertex -10.0429 9.88522 11.7
    endloop
  endfacet
  facet normal -0.555714 0.831373 0
    outer loop
      vertex -9.76299 10.0233 11.7
      vertex -9.85 9.96514 17.7
      vertex -9.76299 10.0233 17.7
    endloop
  endfacet
  facet normal -0.555714 0.831373 0
    outer loop
      vertex -9.85 9.96514 17.7
      vertex -9.76299 10.0233 11.7
      vertex -9.85 9.96514 11.7
    endloop
  endfacet
  facet normal -0.0659481 -0.997823 0
    outer loop
      vertex -10.25 11.458 11.7
      vertex -10.1456 11.4511 17.7
      vertex -10.25 11.458 17.7
    endloop
  endfacet
  facet normal -0.0659481 -0.997823 -0
    outer loop
      vertex -10.1456 11.4511 17.7
      vertex -10.25 11.458 11.7
      vertex -10.1456 11.4511 11.7
    endloop
  endfacet
  facet normal -0.751973 0.659194 0
    outer loop
      vertex -9.68431 10.0923 11.7
      vertex -9.61532 10.171 17.7
      vertex -9.61532 10.171 11.7
    endloop
  endfacet
  facet normal -0.751973 0.659194 0
    outer loop
      vertex -9.61532 10.171 17.7
      vertex -9.68431 10.0923 11.7
      vertex -9.68431 10.0923 17.7
    endloop
  endfacet
  facet normal 0.831609 0.555362 0
    outer loop
      vertex -10.8847 10.171 17.7
      vertex -10.9428 10.258 11.7
      vertex -10.9428 10.258 17.7
    endloop
  endfacet
  facet normal 0.831609 0.555362 0
    outer loop
      vertex -10.9428 10.258 11.7
      vertex -10.8847 10.171 17.7
      vertex -10.8847 10.171 11.7
    endloop
  endfacet
  facet normal 0.442086 0.896973 -0
    outer loop
      vertex -10.5561 9.91886 11.7
      vertex -10.65 9.96514 17.7
      vertex -10.5561 9.91886 17.7
    endloop
  endfacet
  facet normal 0.442086 0.896973 0
    outer loop
      vertex -10.65 9.96514 17.7
      vertex -10.5561 9.91886 11.7
      vertex -10.65 9.96514 11.7
    endloop
  endfacet
  facet normal -0.896786 0.442465 0
    outer loop
      vertex -9.55718 10.258 11.7
      vertex -9.5109 10.3518 17.7
      vertex -9.5109 10.3518 11.7
    endloop
  endfacet
  facet normal -0.896786 0.442465 0
    outer loop
      vertex -9.5109 10.3518 17.7
      vertex -9.55718 10.258 11.7
      vertex -9.55718 10.258 17.7
    endloop
  endfacet
  facet normal 0.980617 -0.195932 0
    outer loop
      vertex -11.0432 10.7624 17.7
      vertex -11.0227 10.865 11.7
      vertex -11.0227 10.865 17.7
    endloop
  endfacet
  facet normal 0.980617 -0.195932 0
    outer loop
      vertex -11.0227 10.865 11.7
      vertex -11.0432 10.7624 17.7
      vertex -11.0432 10.7624 11.7
    endloop
  endfacet
  facet normal 0.194922 0.980819 -0
    outer loop
      vertex -10.3544 9.86481 11.7
      vertex -10.4571 9.88522 17.7
      vertex -10.3544 9.86481 17.7
    endloop
  endfacet
  facet normal 0.194922 0.980819 0
    outer loop
      vertex -10.4571 9.88522 17.7
      vertex -10.3544 9.86481 11.7
      vertex -10.4571 9.88522 11.7
    endloop
  endfacet
  facet normal -0.0654722 0.997854 0
    outer loop
      vertex -10.1456 9.86481 11.7
      vertex -10.25 9.85796 17.7
      vertex -10.1456 9.86481 17.7
    endloop
  endfacet
  facet normal -0.0654722 0.997854 0
    outer loop
      vertex -10.25 9.85796 17.7
      vertex -10.1456 9.86481 11.7
      vertex -10.25 9.85796 11.7
    endloop
  endfacet
  facet normal -0.659343 -0.751842 0
    outer loop
      vertex -9.76299 11.2926 11.7
      vertex -9.68431 11.2236 17.7
      vertex -9.76299 11.2926 17.7
    endloop
  endfacet
  facet normal -0.659343 -0.751842 -0
    outer loop
      vertex -9.68431 11.2236 17.7
      vertex -9.76299 11.2926 11.7
      vertex -9.68431 11.2236 11.7
    endloop
  endfacet
  facet normal 0.99789 0.0649344 0
    outer loop
      vertex -11.0432 10.5535 17.7
      vertex -11.05 10.658 11.7
      vertex -11.05 10.658 17.7
    endloop
  endfacet
  facet normal 0.99789 0.0649344 0
    outer loop
      vertex -11.05 10.658 11.7
      vertex -11.0432 10.5535 17.7
      vertex -11.0432 10.5535 11.7
    endloop
  endfacet
  facet normal 0.19483 -0.980837 0
    outer loop
      vertex -10.4571 11.4307 11.7
      vertex -10.3544 11.4511 17.7
      vertex -10.4571 11.4307 17.7
    endloop
  endfacet
  facet normal 0.19483 -0.980837 0
    outer loop
      vertex -10.3544 11.4511 17.7
      vertex -10.4571 11.4307 11.7
      vertex -10.3544 11.4511 11.7
    endloop
  endfacet
  facet normal 0.980617 0.195932 0
    outer loop
      vertex -11.0227 10.4509 17.7
      vertex -11.0432 10.5535 11.7
      vertex -11.0432 10.5535 17.7
    endloop
  endfacet
  facet normal 0.980617 0.195932 0
    outer loop
      vertex -11.0432 10.5535 11.7
      vertex -11.0227 10.4509 17.7
      vertex -11.0227 10.4509 11.7
    endloop
  endfacet
  facet normal 0.659248 0.751925 -0
    outer loop
      vertex -10.737 10.0233 11.7
      vertex -10.8157 10.0923 17.7
      vertex -10.737 10.0233 17.7
    endloop
  endfacet
  facet normal 0.659248 0.751925 0
    outer loop
      vertex -10.8157 10.0923 17.7
      vertex -10.737 10.0233 11.7
      vertex -10.8157 10.0923 11.7
    endloop
  endfacet
  facet normal 0.947046 -0.321097 0
    outer loop
      vertex -11.0227 10.865 17.7
      vertex -10.9891 10.9641 11.7
      vertex -10.9891 10.9641 17.7
    endloop
  endfacet
  facet normal 0.947046 -0.321097 0
    outer loop
      vertex -10.9891 10.9641 11.7
      vertex -11.0227 10.865 17.7
      vertex -11.0227 10.865 11.7
    endloop
  endfacet
  facet normal -1 0 0
    outer loop
      vertex -8 18.65 32.975
      vertex -8 33.35 39
      vertex -8 33.35 32.975
    endloop
  endfacet
  facet normal -1 -0 0
    outer loop
      vertex -8 33.35 39
      vertex -8 18.65 32.975
      vertex -8 18.65 39
    endloop
  endfacet
  facet normal -1 0 0
    outer loop
      vertex -12.5 4.15796 0.7
      vertex -12.5 17.158 17.7
      vertex -12.5 17.158 0.7
    endloop
  endfacet
  facet normal -1 -0 0
    outer loop
      vertex -12.5 17.158 17.7
      vertex -12.5 4.15796 0.7
      vertex -12.5 4.15796 17.7
    endloop
  endfacet
  facet normal -0 0 1
    outer loop
      vertex -38.5 13.158 0.7
      vertex -35.5 8.15796 0.7
      vertex -35.5 13.158 0.7
    endloop
  endfacet
  facet normal 0 0 1
    outer loop
      vertex -35.5 8.15796 0.7
      vertex -38.5 13.158 0.7
      vertex -38.5 8.15796 0.7
    endloop
  endfacet
  facet normal 0 0 1
    outer loop
      vertex -35.5 13.158 0.7
      vertex -12.5 17.158 0.7
      vertex -35.5 17.158 0.7
    endloop
  endfacet
  facet normal 0 0 1
    outer loop
      vertex -12.5 17.158 0.7
      vertex -35.5 13.158 0.7
      vertex -12.5 4.15796 0.7
    endloop
  endfacet
  facet normal -0 0 1
    outer loop
      vertex -35.5 8.15796 0.7
      vertex -12.5 4.15796 0.7
      vertex -35.5 13.158 0.7
    endloop
  endfacet
  facet normal 0 0 1
    outer loop
      vertex -12.5 4.15796 0.7
      vertex -35.5 8.15796 0.7
      vertex -35.5 4.15796 0.7
    endloop
  endfacet
  facet normal 1 -0 0
    outer loop
      vertex -35.5 4.15796 17.7
      vertex -35.5 8.15796 0.7
      vertex -35.5 8.15796 17.7
    endloop
  endfacet
  facet normal 1 0 0
    outer loop
      vertex -35.5 8.15796 0.7
      vertex -35.5 4.15796 17.7
      vertex -35.5 4.15796 0.7
    endloop
  endfacet
  facet normal 1 -0 0
    outer loop
      vertex -35.5 13.158 17.7
      vertex -35.5 17.158 0.7
      vertex -35.5 17.158 17.7
    endloop
  endfacet
  facet normal 1 0 0
    outer loop
      vertex -35.5 17.158 0.7
      vertex -35.5 13.158 17.7
      vertex -35.5 13.158 0.7
    endloop
  endfacet
  facet normal 0 -1 0
    outer loop
      vertex -40.5 17.158 39
      vertex -37.1184 17.158 28
      vertex -37.1184 17.158 39
    endloop
  endfacet
  facet normal 0 -1 0
    outer loop
      vertex -35.5 17.158 17.7
      vertex -37.1184 17.158 28
      vertex -40.5 17.158 17.7
    endloop
  endfacet
  facet normal 0 -1 0
    outer loop
      vertex -40.5 17.158 17.7
      vertex -37.1184 17.158 28
      vertex -40.5 17.158 39
    endloop
  endfacet
  facet normal 0 -1 0
    outer loop
      vertex -22.6789 17.158 28
      vertex -7.5 17.158 39
      vertex -22.6789 17.158 39
    endloop
  endfacet
  facet normal 0 -1 0
    outer loop
      vertex -37.1184 17.158 28
      vertex -35.5 17.158 17.7
      vertex -22.6789 17.158 28
    endloop
  endfacet
  facet normal 0 -1 0
    outer loop
      vertex -12.5 17.158 17.7
      vertex -22.6789 17.158 28
      vertex -35.5 17.158 17.7
    endloop
  endfacet
  facet normal 0 -1 0
    outer loop
      vertex -22.6789 17.158 28
      vertex -12.5 17.158 17.7
      vertex -7.5 17.158 39
    endloop
  endfacet
  facet normal 0 -1 -0
    outer loop
      vertex -7.5 17.158 39
      vertex -12.5 17.158 17.7
      vertex -7.5 17.158 17.7
    endloop
  endfacet
  facet normal 0 -1 0
    outer loop
      vertex -35.5 17.158 0.7
      vertex -12.5 17.158 17.7
      vertex -35.5 17.158 17.7
    endloop
  endfacet
  facet normal 0 -1 -0
    outer loop
      vertex -12.5 17.158 17.7
      vertex -35.5 17.158 0.7
      vertex -12.5 17.158 0.7
    endloop
  endfacet
  facet normal 0 1 -0
    outer loop
      vertex -12.5 4.15796 0.7
      vertex -35.5 4.15796 17.7
      vertex -12.5 4.15796 17.7
    endloop
  endfacet
  facet normal 0 1 0
    outer loop
      vertex -35.5 4.15796 17.7
      vertex -12.5 4.15796 0.7
      vertex -35.5 4.15796 0.7
    endloop
  endfacet
  facet normal 0 1 0
    outer loop
      vertex -12.5 4.15796 17.7
      vertex -7.5 4.15796 39
      vertex -7.5 4.15796 17.7
    endloop
  endfacet
  facet normal 0 1 0
    outer loop
      vertex -7.5 4.15796 39
      vertex -12.5 4.15796 17.7
      vertex -40.5 4.15796 39
    endloop
  endfacet
  facet normal 0 1 -0
    outer loop
      vertex -35.5 4.15796 17.7
      vertex -40.5 4.15796 39
      vertex -12.5 4.15796 17.7
    endloop
  endfacet
  facet normal 0 1 0
    outer loop
      vertex -40.5 4.15796 39
      vertex -35.5 4.15796 17.7
      vertex -40.5 4.15796 17.7
    endloop
  endfacet
  facet normal -1 0 0
    outer loop
      vertex -7.5 4.15796 17.7
      vertex -7.5 17.158 39
      vertex -7.5 17.158 17.7
    endloop
  endfacet
  facet normal -1 -0 0
    outer loop
      vertex -7.5 17.158 39
      vertex -7.5 4.15796 17.7
      vertex -7.5 4.15796 39
    endloop
  endfacet
  facet normal 0 0 1
    outer loop
      vertex -7.5 17.158 17.7
      vertex -9.45 10.658 17.7
      vertex -7.5 4.15796 17.7
    endloop
  endfacet
  facet normal 0 0 1
    outer loop
      vertex -7.5 17.158 17.7
      vertex -9.45684 10.7624 17.7
      vertex -9.45 10.658 17.7
    endloop
  endfacet
  facet normal 0 0 1
    outer loop
      vertex -7.5 17.158 17.7
      vertex -9.47726 10.865 17.7
      vertex -9.45684 10.7624 17.7
    endloop
  endfacet
  facet normal 0 0 1
    outer loop
      vertex -7.5 17.158 17.7
      vertex -9.5109 10.9641 17.7
      vertex -9.47726 10.865 17.7
    endloop
  endfacet
  facet normal 0 0 1
    outer loop
      vertex -7.5 17.158 17.7
      vertex -9.55718 11.058 17.7
      vertex -9.5109 10.9641 17.7
    endloop
  endfacet
  facet normal 0 0 1
    outer loop
      vertex -7.5 17.158 17.7
      vertex -9.61532 11.145 17.7
      vertex -9.55718 11.058 17.7
    endloop
  endfacet
  facet normal 0 0 1
    outer loop
      vertex -7.5 17.158 17.7
      vertex -9.68431 11.2236 17.7
      vertex -9.61532 11.145 17.7
    endloop
  endfacet
  facet normal 0 0 1
    outer loop
      vertex -7.5 17.158 17.7
      vertex -9.76299 11.2926 17.7
      vertex -9.68431 11.2236 17.7
    endloop
  endfacet
  facet normal 0 0 1
    outer loop
      vertex -7.5 17.158 17.7
      vertex -9.85 11.3508 17.7
      vertex -9.76299 11.2926 17.7
    endloop
  endfacet
  facet normal 0 0 1
    outer loop
      vertex -7.5 17.158 17.7
      vertex -9.94385 11.3971 17.7
      vertex -9.85 11.3508 17.7
    endloop
  endfacet
  facet normal 0 0 1
    outer loop
      vertex -7.5 17.158 17.7
      vertex -10.0429 11.4307 17.7
      vertex -9.94385 11.3971 17.7
    endloop
  endfacet
  facet normal 0 0 1
    outer loop
      vertex -7.5 17.158 17.7
      vertex -10.1456 11.4511 17.7
      vertex -10.0429 11.4307 17.7
    endloop
  endfacet
  facet normal 0 0 1
    outer loop
      vertex -7.5 17.158 17.7
      vertex -10.25 11.458 17.7
      vertex -10.1456 11.4511 17.7
    endloop
  endfacet
  facet normal -0 0 1
    outer loop
      vertex -12.5 17.158 17.7
      vertex -10.25 11.458 17.7
      vertex -7.5 17.158 17.7
    endloop
  endfacet
  facet normal 0 0 1
    outer loop
      vertex -10.25 11.458 17.7
      vertex -12.5 17.158 17.7
      vertex -10.3544 11.4511 17.7
    endloop
  endfacet
  facet normal 0 0 1
    outer loop
      vertex -10.3544 11.4511 17.7
      vertex -12.5 17.158 17.7
      vertex -10.4571 11.4307 17.7
    endloop
  endfacet
  facet normal 0 0 1
    outer loop
      vertex -10.4571 11.4307 17.7
      vertex -12.5 17.158 17.7
      vertex -10.5561 11.3971 17.7
    endloop
  endfacet
  facet normal 0 0 1
    outer loop
      vertex -10.5561 11.3971 17.7
      vertex -12.5 17.158 17.7
      vertex -10.65 11.3508 17.7
    endloop
  endfacet
  facet normal 0 0 1
    outer loop
      vertex -10.65 11.3508 17.7
      vertex -12.5 17.158 17.7
      vertex -10.737 11.2926 17.7
    endloop
  endfacet
  facet normal 0 0 1
    outer loop
      vertex -10.737 11.2926 17.7
      vertex -12.5 17.158 17.7
      vertex -10.8157 11.2236 17.7
    endloop
  endfacet
  facet normal 0 0 1
    outer loop
      vertex -10.8157 11.2236 17.7
      vertex -12.5 17.158 17.7
      vertex -10.8847 11.145 17.7
    endloop
  endfacet
  facet normal 0 0 1
    outer loop
      vertex -11.0432 10.7624 17.7
      vertex -12.5 17.158 17.7
      vertex -11.05 10.658 17.7
    endloop
  endfacet
  facet normal 0 0 1
    outer loop
      vertex -11.0227 10.865 17.7
      vertex -12.5 17.158 17.7
      vertex -11.0432 10.7624 17.7
    endloop
  endfacet
  facet normal 0 0 1
    outer loop
      vertex -10.9891 10.9641 17.7
      vertex -12.5 17.158 17.7
      vertex -11.0227 10.865 17.7
    endloop
  endfacet
  facet normal 0 0 1
    outer loop
      vertex -10.9428 11.058 17.7
      vertex -12.5 17.158 17.7
      vertex -10.9891 10.9641 17.7
    endloop
  endfacet
  facet normal 0 0 1
    outer loop
      vertex -10.8847 11.145 17.7
      vertex -12.5 17.158 17.7
      vertex -10.9428 11.058 17.7
    endloop
  endfacet
  facet normal -0 0 1
    outer loop
      vertex -9.45684 10.5535 17.7
      vertex -7.5 4.15796 17.7
      vertex -9.45 10.658 17.7
    endloop
  endfacet
  facet normal -0 0 1
    outer loop
      vertex -9.47726 10.4509 17.7
      vertex -7.5 4.15796 17.7
      vertex -9.45684 10.5535 17.7
    endloop
  endfacet
  facet normal -0 0 1
    outer loop
      vertex -9.5109 10.3518 17.7
      vertex -7.5 4.15796 17.7
      vertex -9.47726 10.4509 17.7
    endloop
  endfacet
  facet normal -0 0 1
    outer loop
      vertex -9.55718 10.258 17.7
      vertex -7.5 4.15796 17.7
      vertex -9.5109 10.3518 17.7
    endloop
  endfacet
  facet normal -0 0 1
    outer loop
      vertex -9.61532 10.171 17.7
      vertex -7.5 4.15796 17.7
      vertex -9.55718 10.258 17.7
    endloop
  endfacet
  facet normal -0 0 1
    outer loop
      vertex -9.68431 10.0923 17.7
      vertex -7.5 4.15796 17.7
      vertex -9.61532 10.171 17.7
    endloop
  endfacet
  facet normal -0 0 1
    outer loop
      vertex -9.76299 10.0233 17.7
      vertex -7.5 4.15796 17.7
      vertex -9.68431 10.0923 17.7
    endloop
  endfacet
  facet normal -0 0 1
    outer loop
      vertex -9.85 9.96514 17.7
      vertex -7.5 4.15796 17.7
      vertex -9.76299 10.0233 17.7
    endloop
  endfacet
  facet normal -0 0 1
    outer loop
      vertex -9.94385 9.91886 17.7
      vertex -7.5 4.15796 17.7
      vertex -9.85 9.96514 17.7
    endloop
  endfacet
  facet normal -0 0 1
    outer loop
      vertex -10.0429 9.88522 17.7
      vertex -7.5 4.15796 17.7
      vertex -9.94385 9.91886 17.7
    endloop
  endfacet
  facet normal -0 0 1
    outer loop
      vertex -10.1456 9.86481 17.7
      vertex -7.5 4.15796 17.7
      vertex -10.0429 9.88522 17.7
    endloop
  endfacet
  facet normal -0 0 1
    outer loop
      vertex -10.25 9.85796 17.7
      vertex -7.5 4.15796 17.7
      vertex -10.1456 9.86481 17.7
    endloop
  endfacet
  facet normal 0 0 1
    outer loop
      vertex -12.5 4.15796 17.7
      vertex -10.25 9.85796 17.7
      vertex -10.3544 9.86481 17.7
    endloop
  endfacet
  facet normal 0 0 1
    outer loop
      vertex -12.5 4.15796 17.7
      vertex -10.3544 9.86481 17.7
      vertex -10.4571 9.88522 17.7
    endloop
  endfacet
  facet normal 0 0 1
    outer loop
      vertex -12.5 4.15796 17.7
      vertex -10.4571 9.88522 17.7
      vertex -10.5561 9.91886 17.7
    endloop
  endfacet
  facet normal 0 0 1
    outer loop
      vertex -12.5 4.15796 17.7
      vertex -10.5561 9.91886 17.7
      vertex -10.65 9.96514 17.7
    endloop
  endfacet
  facet normal 0 0 1
    outer loop
      vertex -12.5 4.15796 17.7
      vertex -10.65 9.96514 17.7
      vertex -10.737 10.0233 17.7
    endloop
  endfacet
  facet normal 0 0 1
    outer loop
      vertex -12.5 4.15796 17.7
      vertex -10.737 10.0233 17.7
      vertex -10.8157 10.0923 17.7
    endloop
  endfacet
  facet normal 0 0 1
    outer loop
      vertex -12.5 4.15796 17.7
      vertex -10.8157 10.0923 17.7
      vertex -10.8847 10.171 17.7
    endloop
  endfacet
  facet normal 0 0 1
    outer loop
      vertex -12.5 4.15796 17.7
      vertex -10.8847 10.171 17.7
      vertex -10.9428 10.258 17.7
    endloop
  endfacet
  facet normal 0 0 1
    outer loop
      vertex -12.5 4.15796 17.7
      vertex -11.05 10.658 17.7
      vertex -12.5 17.158 17.7
    endloop
  endfacet
  facet normal 0 0 1
    outer loop
      vertex -11.05 10.658 17.7
      vertex -12.5 4.15796 17.7
      vertex -11.0432 10.5535 17.7
    endloop
  endfacet
  facet normal 0 0 1
    outer loop
      vertex -10.25 9.85796 17.7
      vertex -12.5 4.15796 17.7
      vertex -7.5 4.15796 17.7
    endloop
  endfacet
  facet normal 0 0 1
    outer loop
      vertex -10.9891 10.3518 17.7
      vertex -12.5 4.15796 17.7
      vertex -10.9428 10.258 17.7
    endloop
  endfacet
  facet normal 0 0 1
    outer loop
      vertex -11.0227 10.4509 17.7
      vertex -12.5 4.15796 17.7
      vertex -10.9891 10.3518 17.7
    endloop
  endfacet
  facet normal 0 0 1
    outer loop
      vertex -11.0432 10.5535 17.7
      vertex -12.5 4.15796 17.7
      vertex -11.0227 10.4509 17.7
    endloop
  endfacet
  facet normal 0 0 1
    outer loop
      vertex -35.5 17.158 17.7
      vertex -38.5 13.158 17.7
      vertex -35.5 13.158 17.7
    endloop
  endfacet
  facet normal 0 0 1
    outer loop
      vertex -38.5 13.158 17.7
      vertex -38.5227 10.865 17.7
      vertex -38.5 10.932 17.7
    endloop
  endfacet
  facet normal 0 0 1
    outer loop
      vertex -38.5 13.158 17.7
      vertex -38.5432 10.7624 17.7
      vertex -38.5227 10.865 17.7
    endloop
  endfacet
  facet normal 0 0 1
    outer loop
      vertex -40.5 17.158 17.7
      vertex -38.5432 10.7624 17.7
      vertex -38.5 13.158 17.7
    endloop
  endfacet
  facet normal 0 0 1
    outer loop
      vertex -38.5432 10.7624 17.7
      vertex -40.5 17.158 17.7
      vertex -38.55 10.658 17.7
    endloop
  endfacet
  facet normal -0 0 1
    outer loop
      vertex -40.5 17.158 17.7
      vertex -38.5 13.158 17.7
      vertex -35.5 17.158 17.7
    endloop
  endfacet
  facet normal 0 0 1
    outer loop
      vertex -38.5 10.3839 17.7
      vertex -38.5227 10.4509 17.7
      vertex -38.5 8.15796 17.7
    endloop
  endfacet
  facet normal -0 0 1
    outer loop
      vertex -38.5 8.15796 17.7
      vertex -35.5 4.15796 17.7
      vertex -35.5 8.15796 17.7
    endloop
  endfacet
  facet normal 0 0 1
    outer loop
      vertex -38.5432 10.5535 17.7
      vertex -38.5 8.15796 17.7
      vertex -38.5227 10.4509 17.7
    endloop
  endfacet
  facet normal 0 0 1
    outer loop
      vertex -40.5 4.15796 17.7
      vertex -38.5432 10.5535 17.7
      vertex -38.55 10.658 17.7
    endloop
  endfacet
  facet normal 0 0 1
    outer loop
      vertex -40.5 4.15796 17.7
      vertex -38.55 10.658 17.7
      vertex -40.5 17.158 17.7
    endloop
  endfacet
  facet normal 0 0 1
    outer loop
      vertex -38.5 8.15796 17.7
      vertex -40.5 4.15796 17.7
      vertex -35.5 4.15796 17.7
    endloop
  endfacet
  facet normal 0 0 1
    outer loop
      vertex -38.5432 10.5535 17.7
      vertex -40.5 4.15796 17.7
      vertex -38.5 8.15796 17.7
    endloop
  endfacet
  facet normal 1 -0 0
    outer loop
      vertex -40.5 4.15796 39
      vertex -40.5 17.158 17.7
      vertex -40.5 17.158 39
    endloop
  endfacet
  facet normal 1 0 0
    outer loop
      vertex -40.5 17.158 17.7
      vertex -40.5 4.15796 39
      vertex -40.5 4.15796 17.7
    endloop
  endfacet
  facet normal 1 0 0
    outer loop
      vertex -38.5 10.3839 17.7
      vertex -38.5 8.15796 17.7
      vertex -38.5 10.3839 11.7
    endloop
  endfacet
  facet normal 1 0 0
    outer loop
      vertex -38.5 10.932 11.7
      vertex -38.5 13.158 17.7
      vertex -38.5 10.932 17.7
    endloop
  endfacet
  facet normal 1 0 0
    outer loop
      vertex -38.5 13.158 17.7
      vertex -38.5 10.932 11.7
      vertex -38.5 13.158 0.7
    endloop
  endfacet
  facet normal 1 -0 0
    outer loop
      vertex -38.5 10.3839 11.7
      vertex -38.5 13.158 0.7
      vertex -38.5 10.932 11.7
    endloop
  endfacet
  facet normal 1 0 0
    outer loop
      vertex -38.5 8.15796 0.7
      vertex -38.5 10.3839 11.7
      vertex -38.5 8.15796 17.7
    endloop
  endfacet
  facet normal 1 0 0
    outer loop
      vertex -38.5 10.3839 11.7
      vertex -38.5 8.15796 0.7
      vertex -38.5 13.158 0.7
    endloop
  endfacet
  facet normal 0 -1 0
    outer loop
      vertex -38.5 13.158 0.7
      vertex -35.5 13.158 17.7
      vertex -38.5 13.158 17.7
    endloop
  endfacet
  facet normal 0 -1 -0
    outer loop
      vertex -35.5 13.158 17.7
      vertex -38.5 13.158 0.7
      vertex -35.5 13.158 0.7
    endloop
  endfacet
  facet normal 0 1 -0
    outer loop
      vertex -35.5 8.15796 0.7
      vertex -38.5 8.15796 17.7
      vertex -35.5 8.15796 17.7
    endloop
  endfacet
  facet normal 0 1 0
    outer loop
      vertex -38.5 8.15796 17.7
      vertex -35.5 8.15796 0.7
      vertex -38.5 8.15796 0.7
    endloop
  endfacet
  facet normal -0 0 1
    outer loop
      vertex -38.7524 18.65 28
      vertex -22.6789 17.158 28
      vertex -20.9984 18.65 28
    endloop
  endfacet
  facet normal 0 0 1
    outer loop
      vertex -22.6789 17.158 28
      vertex -38.7524 18.65 28
      vertex -37.1184 17.158 28
    endloop
  endfacet
  facet normal -0.663922 0.747802 0
    outer loop
      vertex -20.9984 18.65 28
      vertex -22.6789 17.158 39
      vertex -20.9984 18.65 39
    endloop
  endfacet
  facet normal -0.663922 0.747802 0
    outer loop
      vertex -22.6789 17.158 39
      vertex -20.9984 18.65 28
      vertex -22.6789 17.158 28
    endloop
  endfacet
  facet normal 0.674291 0.738466 -0
    outer loop
      vertex -37.1184 17.158 28
      vertex -38.7524 18.65 39
      vertex -37.1184 17.158 39
    endloop
  endfacet
  facet normal 0.674291 0.738466 0
    outer loop
      vertex -38.7524 18.65 39
      vertex -37.1184 17.158 28
      vertex -38.7524 18.65 28
    endloop
  endfacet
  facet normal 1 -0 0
    outer loop
      vertex 16.5 1.15796 39
      vertex 16.5 41 0
      vertex 16.5 41 39
    endloop
  endfacet
  facet normal 1 0 0
    outer loop
      vertex 16.5 41 0
      vertex 16.5 1.15796 39
      vertex 16.5 1.15796 0
    endloop
  endfacet
  facet normal -1 0 0
    outer loop
      vertex -43.5 41 0
      vertex -43.5 33.35 23.825
      vertex -43.5 41 39
    endloop
  endfacet
  facet normal -1 0 0
    outer loop
      vertex -43.5 41 0
      vertex -43.5 18.65 23.825
      vertex -43.5 33.35 23.825
    endloop
  endfacet
  facet normal -1 0 0
    outer loop
      vertex -43.5 1.15796 0
      vertex -43.5 18.65 23.825
      vertex -43.5 41 0
    endloop
  endfacet
  facet normal -1 0 0
    outer loop
      vertex -43.5 1.15796 39
      vertex -43.5 18.65 23.825
      vertex -43.5 1.15796 0
    endloop
  endfacet
  facet normal -1 0 0
    outer loop
      vertex -43.5 18.65 23.825
      vertex -43.5 1.15796 39
      vertex -43.5 18.65 39
    endloop
  endfacet
  facet normal -1 -0 0
    outer loop
      vertex -43.5 41 39
      vertex -43.5 33.35 23.825
      vertex -43.5 33.35 39
    endloop
  endfacet
  facet normal 0 -1 0
    outer loop
      vertex -43.5 1.15796 0
      vertex 16.5 1.15796 39
      vertex -43.5 1.15796 39
    endloop
  endfacet
  facet normal 0 -1 -0
    outer loop
      vertex 16.5 1.15796 39
      vertex -43.5 1.15796 0
      vertex 16.5 1.15796 0
    endloop
  endfacet
  facet normal 0 0 1
    outer loop
      vertex 17.2228 64 8
      vertex 15.7228 55.1213 8
      vertex 17.2228 55.1213 8
    endloop
  endfacet
  facet normal 0 0 1
    outer loop
      vertex -11.6228 53.1841 8
      vertex 15.7228 55.1213 8
      vertex -11.6228 60.8159 8
    endloop
  endfacet
  facet normal 0 0 1
    outer loop
      vertex 17.2228 64 8
      vertex -11.6228 60.8159 8
      vertex 15.7228 55.1213 8
    endloop
  endfacet
  facet normal -0 0 1
    outer loop
      vertex -17.2228 64 8
      vertex -11.6228 60.8159 8
      vertex 17.2228 64 8
    endloop
  endfacet
  facet normal 0 0 1
    outer loop
      vertex -14.2228 60.8159 8
      vertex -17.2228 64 8
      vertex -14.2228 53.1841 8
    endloop
  endfacet
  facet normal 0 0 1
    outer loop
      vertex -11.6228 60.8159 8
      vertex -17.2228 64 8
      vertex -14.2228 60.8159 8
    endloop
  endfacet
  facet normal -0 0 1
    outer loop
      vertex 15.7228 53.9289 8
      vertex 17.2228 50 8
      vertex 17.2228 53.9289 8
    endloop
  endfacet
  facet normal 0 0 1
    outer loop
      vertex 15.7228 55.1213 8
      vertex -11.6228 53.1841 8
      vertex 15.7228 53.9289 8
    endloop
  endfacet
  facet normal 0 0 1
    outer loop
      vertex 15.7228 53.9289 8
      vertex -11.6228 53.1841 8
      vertex 17.2228 50 8
    endloop
  endfacet
  facet normal 0 0 1
    outer loop
      vertex -17.2228 50 8
      vertex -11.6228 53.1841 8
      vertex -14.2228 53.1841 8
    endloop
  endfacet
  facet normal 0 0 1
    outer loop
      vertex -11.6228 53.1841 8
      vertex -17.2228 50 8
      vertex 17.2228 50 8
    endloop
  endfacet
  facet normal 0 0 1
    outer loop
      vertex -17.2228 50 8
      vertex -14.2228 53.1841 8
      vertex -17.2228 64 8
    endloop
  endfacet
  facet normal 0 0 -1
    outer loop
      vertex 17.2228 50 0
      vertex 15.7228 58.8787 0
      vertex 17.2228 58.8787 0
    endloop
  endfacet
  facet normal 0 0 -1
    outer loop
      vertex -11.6228 60.8159 0
      vertex 15.7228 58.8787 0
      vertex -11.6228 53.1841 0
    endloop
  endfacet
  facet normal 0 0 -1
    outer loop
      vertex 17.2228 50 0
      vertex -11.6228 53.1841 0
      vertex 15.7228 58.8787 0
    endloop
  endfacet
  facet normal 0 0 -1
    outer loop
      vertex -17.2228 50 0
      vertex -11.6228 53.1841 0
      vertex 17.2228 50 0
    endloop
  endfacet
  facet normal -0 0 -1
    outer loop
      vertex -14.2228 53.1841 0
      vertex -17.2228 50 0
      vertex -14.2228 60.8159 0
    endloop
  endfacet
  facet normal -0 0 -1
    outer loop
      vertex -11.6228 53.1841 0
      vertex -17.2228 50 0
      vertex -14.2228 53.1841 0
    endloop
  endfacet
  facet normal 0 0 -1
    outer loop
      vertex 15.7228 60.0711 0
      vertex 17.2228 64 0
      vertex 17.2228 60.0711 0
    endloop
  endfacet
  facet normal 0 0 -1
    outer loop
      vertex 15.7228 58.8787 0
      vertex -11.6228 60.8159 0
      vertex 15.7228 60.0711 0
    endloop
  endfacet
  facet normal 0 0 -1
    outer loop
      vertex 15.7228 60.0711 0
      vertex -11.6228 60.8159 0
      vertex 17.2228 64 0
    endloop
  endfacet
  facet normal 0 0 -1
    outer loop
      vertex -17.2228 64 0
      vertex -11.6228 60.8159 0
      vertex -14.2228 60.8159 0
    endloop
  endfacet
  facet normal 0 0 -1
    outer loop
      vertex -11.6228 60.8159 0
      vertex -17.2228 64 0
      vertex 17.2228 64 0
    endloop
  endfacet
  facet normal 0 0 -1
    outer loop
      vertex -17.2228 64 0
      vertex -14.2228 60.8159 0
      vertex -17.2228 50 0
    endloop
  endfacet
  facet normal 0 1 0
    outer loop
      vertex 15.1015 64 4
      vertex 17.2228 64 8
      vertex 17.2228 64 6.12132
    endloop
  endfacet
  facet normal 0 1 0
    outer loop
      vertex 17.2228 64 8
      vertex 15.1015 64 4
      vertex -17.2228 64 8
    endloop
  endfacet
  facet normal 0 1 -0
    outer loop
      vertex 17.2228 64 0
      vertex 15.1015 64 4
      vertex 17.2228 64 1.87868
    endloop
  endfacet
  facet normal 0 1 0
    outer loop
      vertex 15.1015 64 4
      vertex 17.2228 64 0
      vertex -17.2228 64 0
    endloop
  endfacet
  facet normal 0 1 0
    outer loop
      vertex 15.1015 64 4
      vertex -17.2228 64 0
      vertex -17.2228 64 8
    endloop
  endfacet
  facet normal 0 -1 0
    outer loop
      vertex 15.1015 50 4
      vertex 17.2228 50 8
      vertex -17.2228 50 8
    endloop
  endfacet
  facet normal 0 -1 -0
    outer loop
      vertex 17.2228 50 8
      vertex 15.1015 50 4
      vertex 17.2228 50 6.12132
    endloop
  endfacet
  facet normal 0 -1 0
    outer loop
      vertex -17.2228 50 0
      vertex 15.1015 50 4
      vertex -17.2228 50 8
    endloop
  endfacet
  facet normal 0 -1 0
    outer loop
      vertex 17.2228 50 0
      vertex 15.1015 50 4
      vertex -17.2228 50 0
    endloop
  endfacet
  facet normal 0 -1 0
    outer loop
      vertex 15.1015 50 4
      vertex 17.2228 50 0
      vertex 17.2228 50 1.87868
    endloop
  endfacet
  facet normal -1 0 0
    outer loop
      vertex -11.6228 53.1841 0
      vertex -11.6228 60.8159 8
      vertex -11.6228 60.8159 0
    endloop
  endfacet
  facet normal -1 -0 0
    outer loop
      vertex -11.6228 60.8159 8
      vertex -11.6228 53.1841 0
      vertex -11.6228 53.1841 8
    endloop
  endfacet
  facet normal 1 -0 0
    outer loop
      vertex -14.2228 53.1841 8
      vertex -14.2228 60.8159 0
      vertex -14.2228 60.8159 8
    endloop
  endfacet
  facet normal 1 0 0
    outer loop
      vertex -14.2228 60.8159 0
      vertex -14.2228 53.1841 8
      vertex -14.2228 53.1841 0
    endloop
  endfacet
  facet normal 0 -1 0
    outer loop
      vertex -14.2228 60.8159 0
      vertex -11.6228 60.8159 8
      vertex -14.2228 60.8159 8
    endloop
  endfacet
  facet normal 0 -1 -0
    outer loop
      vertex -11.6228 60.8159 8
      vertex -14.2228 60.8159 0
      vertex -11.6228 60.8159 0
    endloop
  endfacet
  facet normal 0 1 -0
    outer loop
      vertex -11.6228 53.1841 0
      vertex -14.2228 53.1841 8
      vertex -11.6228 53.1841 8
    endloop
  endfacet
  facet normal 0 1 0
    outer loop
      vertex -14.2228 53.1841 8
      vertex -11.6228 53.1841 0
      vertex -14.2228 53.1841 0
    endloop
  endfacet
  facet normal 0.70711 0 -0.707103
    outer loop
      vertex 15.1015 50 4
      vertex 17.2228 52.7574 6.12132
      vertex 17.2228 50 6.12132
    endloop
  endfacet
  facet normal 0.707118 0 -0.707095
    outer loop
      vertex 15.7228 54.2574 4.62132
      vertex 15.1015 50 4
      vertex 15.7228 58.5 4.62132
    endloop
  endfacet
  facet normal 0.707108 2.89874e-06 -0.707105
    outer loop
      vertex 17.2228 52.7574 6.12132
      vertex 15.1015 50 4
      vertex 15.7228 54.2574 4.62132
    endloop
  endfacet
  facet normal 0.707107 0 -0.707107
    outer loop
      vertex 15.7228 58.5 4.62132
      vertex 17.2228 64 6.12132
      vertex 17.2228 57 6.12132
    endloop
  endfacet
  facet normal 0.70711 -1.81819e-06 -0.707103
    outer loop
      vertex 15.7228 58.5 4.62132
      vertex 15.1015 64 4
      vertex 17.2228 64 6.12132
    endloop
  endfacet
  facet normal 0.707118 0 -0.707095
    outer loop
      vertex 15.1015 64 4
      vertex 15.7228 58.5 4.62132
      vertex 15.1015 50 4
    endloop
  endfacet
  facet normal 0.70711 0 0.707103
    outer loop
      vertex 15.1015 64 4
      vertex 17.2228 61.2426 1.87868
      vertex 17.2228 64 1.87868
    endloop
  endfacet
  facet normal 0.707118 0 0.707095
    outer loop
      vertex 15.7228 59.7426 3.37868
      vertex 15.1015 64 4
      vertex 15.7228 55.5 3.37868
    endloop
  endfacet
  facet normal 0.707108 -2.89874e-06 0.707105
    outer loop
      vertex 17.2228 61.2426 1.87868
      vertex 15.1015 64 4
      vertex 15.7228 59.7426 3.37868
    endloop
  endfacet
  facet normal 0.707107 0 0.707107
    outer loop
      vertex 15.7228 55.5 3.37868
      vertex 17.2228 50 1.87868
      vertex 17.2228 57 1.87868
    endloop
  endfacet
  facet normal 0.70711 1.81819e-06 0.707103
    outer loop
      vertex 15.7228 55.5 3.37868
      vertex 15.1015 50 4
      vertex 17.2228 50 1.87868
    endloop
  endfacet
  facet normal 0.707118 -0 0.707095
    outer loop
      vertex 15.1015 50 4
      vertex 15.7228 55.5 3.37868
      vertex 15.1015 64 4
    endloop
  endfacet
  facet normal 1 0 0
    outer loop
      vertex 15.7228 55.1213 8
      vertex 15.7228 54.2574 4.62132
      vertex 15.7228 58.5 4.62132
    endloop
  endfacet
  facet normal 1 -0 0
    outer loop
      vertex 15.7228 53.9289 8
      vertex 15.7228 54.2574 4.62132
      vertex 15.7228 55.1213 8
    endloop
  endfacet
  facet normal 1 0 0
    outer loop
      vertex 15.7228 54.2574 4.62132
      vertex 15.7228 53.9289 8
      vertex 15.7228 52.4038 6.47487
    endloop
  endfacet
  facet normal 1 0 0
    outer loop
      vertex 15.7228 59.7426 3.37868
      vertex 15.7228 60.0711 0
      vertex 15.7228 61.5962 1.52513
    endloop
  endfacet
  facet normal 1 0 0
    outer loop
      vertex 15.7228 59.7426 3.37868
      vertex 15.7228 58.8787 0
      vertex 15.7228 60.0711 0
    endloop
  endfacet
  facet normal 1 0 -0
    outer loop
      vertex 15.7228 58.8787 0
      vertex 15.7228 59.7426 3.37868
      vertex 15.7228 55.5 3.37868
    endloop
  endfacet
  facet normal 0 0.707114 -0.7071
    outer loop
      vertex 17.2228 52.4038 6.47487
      vertex 15.7228 53.9289 8
      vertex 17.2228 53.9289 8
    endloop
  endfacet
  facet normal 0 0.707114 -0.7071
    outer loop
      vertex 15.7228 53.9289 8
      vertex 17.2228 52.4038 6.47487
      vertex 15.7228 52.4038 6.47487
    endloop
  endfacet
  facet normal 0 -0.707114 0.7071
    outer loop
      vertex 15.7228 60.0711 0
      vertex 17.2228 61.5962 1.52513
      vertex 15.7228 61.5962 1.52513
    endloop
  endfacet
  facet normal 0 -0.707114 0.7071
    outer loop
      vertex 17.2228 61.5962 1.52513
      vertex 15.7228 60.0711 0
      vertex 17.2228 60.0711 0
    endloop
  endfacet
  facet normal -1.90741e-05 -0.707097 -0.707116
    outer loop
      vertex 15.7228 61.5962 1.52513
      vertex 17.2228 61.2426 1.87868
      vertex 15.7228 59.7426 3.37868
    endloop
  endfacet
  facet normal 0 -0.707057 -0.707157
    outer loop
      vertex 17.2228 61.2426 1.87868
      vertex 15.7228 61.5962 1.52513
      vertex 17.2228 61.5962 1.52513
    endloop
  endfacet
  facet normal 0 -0.707103 -0.707111
    outer loop
      vertex 15.7228 55.1213 8
      vertex 17.2228 57 6.12132
      vertex 17.2228 55.1213 8
    endloop
  endfacet
  facet normal 4.18569e-06 -0.707105 -0.707109
    outer loop
      vertex 17.2228 57 6.12132
      vertex 15.7228 55.1213 8
      vertex 15.7228 58.5 4.62132
    endloop
  endfacet
  facet normal 0 0.707057 0.707157
    outer loop
      vertex 17.2228 52.7574 6.12132
      vertex 15.7228 52.4038 6.47487
      vertex 17.2228 52.4038 6.47487
    endloop
  endfacet
  facet normal -1.90741e-05 0.707097 0.707116
    outer loop
      vertex 15.7228 52.4038 6.47487
      vertex 17.2228 52.7574 6.12132
      vertex 15.7228 54.2574 4.62132
    endloop
  endfacet
  facet normal -0 0.707103 0.707111
    outer loop
      vertex 15.7228 58.8787 0
      vertex 17.2228 57 1.87868
      vertex 17.2228 58.8787 0
    endloop
  endfacet
  facet normal 4.18569e-06 0.707105 0.707109
    outer loop
      vertex 17.2228 57 1.87868
      vertex 15.7228 58.8787 0
      vertex 15.7228 55.5 3.37868
    endloop
  endfacet
  facet normal 1 0 0
    outer loop
      vertex 17.2228 64 8
      vertex 17.2228 57 6.12132
      vertex 17.2228 64 6.12132
    endloop
  endfacet
  facet normal 1 0 -0
    outer loop
      vertex 17.2228 57 6.12132
      vertex 17.2228 64 8
      vertex 17.2228 55.1213 8
    endloop
  endfacet
  facet normal 1 0 0
    outer loop
      vertex 17.2228 53.9289 8
      vertex 17.2228 50 8
      vertex 17.2228 52.4038 6.47487
    endloop
  endfacet
  facet normal 1 0 0
    outer loop
      vertex 17.2228 50 6.12132
      vertex 17.2228 52.4038 6.47487
      vertex 17.2228 50 8
    endloop
  endfacet
  facet normal 1 0 0
    outer loop
      vertex 17.2228 52.4038 6.47487
      vertex 17.2228 50 6.12132
      vertex 17.2228 52.7574 6.12132
    endloop
  endfacet
  facet normal 1 0 0
    outer loop
      vertex 17.2228 64 1.87868
      vertex 17.2228 61.5962 1.52513
      vertex 17.2228 64 0
    endloop
  endfacet
  facet normal 1 0 -0
    outer loop
      vertex 17.2228 61.5962 1.52513
      vertex 17.2228 64 1.87868
      vertex 17.2228 61.2426 1.87868
    endloop
  endfacet
  facet normal 1 0 0
    outer loop
      vertex 17.2228 64 0
      vertex 17.2228 61.5962 1.52513
      vertex 17.2228 60.0711 0
    endloop
  endfacet
  facet normal 1 0 0
    outer loop
      vertex 17.2228 50 0
      vertex 17.2228 57 1.87868
      vertex 17.2228 50 1.87868
    endloop
  endfacet
  facet normal 1 0 0
    outer loop
      vertex 17.2228 57 1.87868
      vertex 17.2228 50 0
      vertex 17.2228 58.8787 0
    endloop
  endfacet
  facet normal -1 0 0
    outer loop
      vertex -17.2228 50 0
      vertex -17.2228 64 8
      vertex -17.2228 64 0
    endloop
  endfacet
  facet normal -1 -0 0
    outer loop
      vertex -17.2228 64 8
      vertex -17.2228 50 0
      vertex -17.2228 50 8
    endloop
  endfacet
  facet normal -0.707107 0 0.707107
    outer loop
      vertex -37 56 25.3029
      vertex -35.3029 80 27
      vertex -37 80 25.3029
    endloop
  endfacet
  facet normal -0.707107 0 0.707107
    outer loop
      vertex -35.3029 80 27
      vertex -37 56 25.3029
      vertex -35.3029 56 27
    endloop
  endfacet
  facet normal 0.707107 -0 0.707107
    outer loop
      vertex -32.6971 56 27
      vertex -31 80 25.3029
      vertex -32.6971 80 27
    endloop
  endfacet
  facet normal 0.707107 0 0.707107
    outer loop
      vertex -31 80 25.3029
      vertex -32.6971 56 27
      vertex -31 56 25.3029
    endloop
  endfacet
  facet normal 1 0 0
    outer loop
      vertex -31 80 25.3029
      vertex -31 76 18.5
      vertex -31 80 3
    endloop
  endfacet
  facet normal 1 0 0
    outer loop
      vertex -31 80 25.3029
      vertex -31 60 18.5
      vertex -31 76 18.5
    endloop
  endfacet
  facet normal 1 0 0
    outer loop
      vertex -31 56 3
      vertex -31 60 18.5
      vertex -31 56 25.3029
    endloop
  endfacet
  facet normal 1 -0 0
    outer loop
      vertex -31 56 25.3029
      vertex -31 60 18.5
      vertex -31 80 25.3029
    endloop
  endfacet
  facet normal 1 -0 0
    outer loop
      vertex -31 76 9.5
      vertex -31 80 3
      vertex -31 76 18.5
    endloop
  endfacet
  facet normal 1 -0 0
    outer loop
      vertex -31 60 9.5
      vertex -31 80 3
      vertex -31 76 9.5
    endloop
  endfacet
  facet normal 1 0 0
    outer loop
      vertex -31 60 9.5
      vertex -31 56 3
      vertex -31 80 3
    endloop
  endfacet
  facet normal 1 0 0
    outer loop
      vertex -31 60 18.5
      vertex -31 56 3
      vertex -31 60 9.5
    endloop
  endfacet
  facet normal -0 0 1
    outer loop
      vertex -35.3029 80 27
      vertex -32.6971 56 27
      vertex -32.6971 80 27
    endloop
  endfacet
  facet normal 0 0 1
    outer loop
      vertex -32.6971 56 27
      vertex -35.3029 80 27
      vertex -35.3029 56 27
    endloop
  endfacet
  facet normal -1 0 0
    outer loop
      vertex -37 77.4559 19.9559
      vertex -37 80 3
      vertex -37 77.4559 8.04412
    endloop
  endfacet
  facet normal -1 0 0
    outer loop
      vertex -37 80 3
      vertex -37 58.5441 8.04412
      vertex -37 77.4559 8.04412
    endloop
  endfacet
  facet normal -1 -0 0
    outer loop
      vertex -37 58.5441 8.04412
      vertex -37 56 3
      vertex -37 58.5441 19.9559
    endloop
  endfacet
  facet normal -1 0 0
    outer loop
      vertex -37 56 3
      vertex -37 58.5441 8.04412
      vertex -37 80 3
    endloop
  endfacet
  facet normal -1 0 0
    outer loop
      vertex -37 80 3
      vertex -37 77.4559 19.9559
      vertex -37 80 25.3029
    endloop
  endfacet
  facet normal -1 0 0
    outer loop
      vertex -37 58.5441 19.9559
      vertex -37 80 25.3029
      vertex -37 77.4559 19.9559
    endloop
  endfacet
  facet normal -1 0 0
    outer loop
      vertex -37 58.5441 19.9559
      vertex -37 56 25.3029
      vertex -37 80 25.3029
    endloop
  endfacet
  facet normal -1 0 0
    outer loop
      vertex -37 56 25.3029
      vertex -37 58.5441 19.9559
      vertex -37 56 3
    endloop
  endfacet
  facet normal 0 1 0
    outer loop
      vertex -31 80 25.3029
      vertex -35.3029 80 27
      vertex -32.6971 80 27
    endloop
  endfacet
  facet normal 0 1 0
    outer loop
      vertex -31 80 25.3029
      vertex -37 80 25.3029
      vertex -35.3029 80 27
    endloop
  endfacet
  facet normal 0 1 -0
    outer loop
      vertex -31 80 3
      vertex -37 80 25.3029
      vertex -31 80 25.3029
    endloop
  endfacet
  facet normal 0 1 0
    outer loop
      vertex -37 80 25.3029
      vertex -31 80 3
      vertex -37 80 3
    endloop
  endfacet
  facet normal 0 -1 0
    outer loop
      vertex -37 56 25.3029
      vertex -32.6971 56 27
      vertex -35.3029 56 27
    endloop
  endfacet
  facet normal 0 -1 0
    outer loop
      vertex -37 56 25.3029
      vertex -31 56 25.3029
      vertex -32.6971 56 27
    endloop
  endfacet
  facet normal 0 -1 0
    outer loop
      vertex -37 56 3
      vertex -31 56 25.3029
      vertex -37 56 25.3029
    endloop
  endfacet
  facet normal 0 -1 -0
    outer loop
      vertex -31 56 25.3029
      vertex -37 56 3
      vertex -31 56 3
    endloop
  endfacet
  facet normal -0 0 1
    outer loop
      vertex -35.35 76 9.5
      vertex -31 60 9.5
      vertex -31 76 9.5
    endloop
  endfacet
  facet normal 0 0 1
    outer loop
      vertex -31 60 9.5
      vertex -35.35 76 9.5
      vertex -35.35 60 9.5
    endloop
  endfacet
  facet normal 0 0 -1
    outer loop
      vertex -35.35 60 18.5
      vertex -31 76 18.5
      vertex -31 60 18.5
    endloop
  endfacet
  facet normal -0 0 -1
    outer loop
      vertex -31 76 18.5
      vertex -35.35 60 18.5
      vertex -35.35 76 18.5
    endloop
  endfacet
  facet normal 0 -1 0
    outer loop
      vertex -35.35 76 9.5
      vertex -31 76 18.5
      vertex -35.35 76 18.5
    endloop
  endfacet
  facet normal 0 -1 -0
    outer loop
      vertex -31 76 18.5
      vertex -35.35 76 9.5
      vertex -31 76 9.5
    endloop
  endfacet
  facet normal 0 1 -0
    outer loop
      vertex -31 60 9.5
      vertex -35.35 60 18.5
      vertex -31 60 18.5
    endloop
  endfacet
  facet normal 0 1 0
    outer loop
      vertex -35.35 60 18.5
      vertex -31 60 9.5
      vertex -35.35 60 9.5
    endloop
  endfacet
  facet normal -0.661626 0 -0.749834
    outer loop
      vertex -37 58.5441 19.9559
      vertex -35.35 76 18.5
      vertex -35.35 60 18.5
    endloop
  endfacet
  facet normal -0.661626 0 -0.749834
    outer loop
      vertex -35.35 76 18.5
      vertex -37 58.5441 19.9559
      vertex -37 77.4559 19.9559
    endloop
  endfacet
  facet normal -0.661621 0 0.749838
    outer loop
      vertex -37 77.4559 8.04412
      vertex -35.35 60 9.5
      vertex -35.35 76 9.5
    endloop
  endfacet
  facet normal -0.661621 0 0.749838
    outer loop
      vertex -35.35 60 9.5
      vertex -37 77.4559 8.04412
      vertex -37 58.5441 8.04412
    endloop
  endfacet
  facet normal -0.661626 0.749834 0
    outer loop
      vertex -35.35 60 9.5
      vertex -37 58.5441 19.9559
      vertex -35.35 60 18.5
    endloop
  endfacet
  facet normal -0.661626 0.749834 0
    outer loop
      vertex -37 58.5441 19.9559
      vertex -35.35 60 9.5
      vertex -37 58.5441 8.04412
    endloop
  endfacet
  facet normal -0.661626 -0.749834 0
    outer loop
      vertex -37 77.4559 19.9559
      vertex -35.35 76 9.5
      vertex -35.35 76 18.5
    endloop
  endfacet
  facet normal -0.661626 -0.749834 0
    outer loop
      vertex -35.35 76 9.5
      vertex -37 77.4559 19.9559
      vertex -37 77.4559 8.04412
    endloop
  endfacet
  facet normal 0 0 1
    outer loop
      vertex -25 86 3
      vertex -31 80 3
      vertex -25 50 3
    endloop
  endfacet
  facet normal 0 0 1
    outer loop
      vertex -25 86 3
      vertex -37 80 3
      vertex -31 80 3
    endloop
  endfacet
  facet normal 0 0 1
    outer loop
      vertex -37 80 3
      vertex -43 86 3
      vertex -37 56 3
    endloop
  endfacet
  facet normal -0 0 1
    outer loop
      vertex -43 86 3
      vertex -37 80 3
      vertex -25 86 3
    endloop
  endfacet
  facet normal -0 0 1
    outer loop
      vertex -31 56 3
      vertex -25 50 3
      vertex -31 80 3
    endloop
  endfacet
  facet normal -0 0 1
    outer loop
      vertex -37 56 3
      vertex -25 50 3
      vertex -31 56 3
    endloop
  endfacet
  facet normal 0 0 1
    outer loop
      vertex -37 56 3
      vertex -43 50 3
      vertex -25 50 3
    endloop
  endfacet
  facet normal 0 0 1
    outer loop
      vertex -43 50 3
      vertex -37 56 3
      vertex -43 86 3
    endloop
  endfacet
  facet normal 1 -0 0
    outer loop
      vertex -25 50 3
      vertex -25 86 0
      vertex -25 86 3
    endloop
  endfacet
  facet normal 1 0 0
    outer loop
      vertex -25 86 0
      vertex -25 50 3
      vertex -25 50 0
    endloop
  endfacet
  facet normal 0 0 -1
    outer loop
      vertex -43 50 0
      vertex -25 86 0
      vertex -25 50 0
    endloop
  endfacet
  facet normal -0 0 -1
    outer loop
      vertex -25 86 0
      vertex -43 50 0
      vertex -43 86 0
    endloop
  endfacet
  facet normal -1 0 0
    outer loop
      vertex -43 50 0
      vertex -43 86 3
      vertex -43 86 0
    endloop
  endfacet
  facet normal -1 -0 0
    outer loop
      vertex -43 86 3
      vertex -43 50 0
      vertex -43 50 3
    endloop
  endfacet
  facet normal 0 1 -0
    outer loop
      vertex -25 86 0
      vertex -43 86 3
      vertex -25 86 3
    endloop
  endfacet
  facet normal 0 1 0
    outer loop
      vertex -43 86 3
      vertex -25 86 0
      vertex -43 86 0
    endloop
  endfacet
  facet normal 0 -1 0
    outer loop
      vertex -43 50 0
      vertex -25 50 3
      vertex -43 50 3
    endloop
  endfacet
  facet normal 0 -1 -0
    outer loop
      vertex -25 50 3
      vertex -43 50 0
      vertex -25 50 0
    endloop
  endfacet
endsolid OpenSCAD_Model
