solid OpenSCAD_Model
  facet normal 1 -0 0
    outer loop
      vertex 20 -7 4
      vertex 20 7 2.82843
      vertex 20 7 4
    endloop
  endfacet
  facet normal 1 0 0
    outer loop
      vertex 20 7 2.82843
      vertex 20 -7 4
      vertex 20 -7 2.82843
    endloop
  endfacet
  facet normal 1 -0 0
    outer loop
      vertex 20 -7 -2.82843
      vertex 20 7 -4
      vertex 20 7 -2.82843
    endloop
  endfacet
  facet normal 1 0 0
    outer loop
      vertex 20 7 -4
      vertex 20 -7 -2.82843
      vertex 20 -7 -4
    endloop
  endfacet
  facet normal 0 0 1
    outer loop
      vertex 20 7 4
      vertex -8.33604 5.63604 4
      vertex 20 -7 4
    endloop
  endfacet
  facet normal -0 0 1
    outer loop
      vertex -20 7 4
      vertex -8.33604 5.63604 4
      vertex 20 7 4
    endloop
  endfacet
  facet normal 0 0 1
    outer loop
      vertex -11.936 5.63604 4
      vertex -20 7 4
      vertex -11.936 -5.63604 4
    endloop
  endfacet
  facet normal 0 0 1
    outer loop
      vertex -8.33604 5.63604 4
      vertex -20 7 4
      vertex -11.936 5.63604 4
    endloop
  endfacet
  facet normal -0 0 1
    outer loop
      vertex -8.33604 -5.63604 4
      vertex 20 -7 4
      vertex -8.33604 5.63604 4
    endloop
  endfacet
  facet normal 0 0 1
    outer loop
      vertex -20 -7 4
      vertex -8.33604 -5.63604 4
      vertex -11.936 -5.63604 4
    endloop
  endfacet
  facet normal 0 0 1
    outer loop
      vertex -8.33604 -5.63604 4
      vertex -20 -7 4
      vertex 20 -7 4
    endloop
  endfacet
  facet normal 0 0 1
    outer loop
      vertex -20 -7 4
      vertex -11.936 -5.63604 4
      vertex -20 7 4
    endloop
  endfacet
  facet normal 0 0 -1
    outer loop
      vertex 20 -7 -4
      vertex -8.33604 -5.63604 -4
      vertex 20 7 -4
    endloop
  endfacet
  facet normal 0 0 -1
    outer loop
      vertex -20 -7 -4
      vertex -8.33604 -5.63604 -4
      vertex 20 -7 -4
    endloop
  endfacet
  facet normal -0 0 -1
    outer loop
      vertex -11.936 -5.63604 -4
      vertex -20 -7 -4
      vertex -11.936 5.63604 -4
    endloop
  endfacet
  facet normal -0 0 -1
    outer loop
      vertex -8.33604 -5.63604 -4
      vertex -20 -7 -4
      vertex -11.936 -5.63604 -4
    endloop
  endfacet
  facet normal 0 0 -1
    outer loop
      vertex -8.33604 5.63604 -4
      vertex 20 7 -4
      vertex -8.33604 -5.63604 -4
    endloop
  endfacet
  facet normal 0 0 -1
    outer loop
      vertex -20 7 -4
      vertex -8.33604 5.63604 -4
      vertex -11.936 5.63604 -4
    endloop
  endfacet
  facet normal 0 0 -1
    outer loop
      vertex -8.33604 5.63604 -4
      vertex -20 7 -4
      vertex 20 7 -4
    endloop
  endfacet
  facet normal 0 0 -1
    outer loop
      vertex -20 7 -4
      vertex -11.936 5.63604 -4
      vertex -20 -7 -4
    endloop
  endfacet
  facet normal -1 0 0
    outer loop
      vertex -20 -7 -4
      vertex -20 7 4
      vertex -20 7 -4
    endloop
  endfacet
  facet normal -1 -0 0
    outer loop
      vertex -20 7 4
      vertex -20 -7 -4
      vertex -20 -7 4
    endloop
  endfacet
  facet normal 0 1 0
    outer loop
      vertex 17.1716 7 0
      vertex 20 7 4
      vertex 20 7 2.82843
    endloop
  endfacet
  facet normal 0 1 0
    outer loop
      vertex 20 7 4
      vertex 17.1716 7 0
      vertex -20 7 4
    endloop
  endfacet
  facet normal 0 1 -0
    outer loop
      vertex 20 7 -4
      vertex 17.1716 7 0
      vertex 20 7 -2.82843
    endloop
  endfacet
  facet normal 0 1 0
    outer loop
      vertex 17.1716 7 0
      vertex 20 7 -4
      vertex -20 7 -4
    endloop
  endfacet
  facet normal 0 1 0
    outer loop
      vertex 17.1716 7 0
      vertex -20 7 -4
      vertex -20 7 4
    endloop
  endfacet
  facet normal 0 -1 0
    outer loop
      vertex 17.1716 -7 0
      vertex 20 -7 4
      vertex -20 -7 4
    endloop
  endfacet
  facet normal 0 -1 -0
    outer loop
      vertex 20 -7 4
      vertex 17.1716 -7 0
      vertex 20 -7 2.82843
    endloop
  endfacet
  facet normal 0 -1 0
    outer loop
      vertex -20 -7 -4
      vertex 17.1716 -7 0
      vertex -20 -7 4
    endloop
  endfacet
  facet normal 0 -1 0
    outer loop
      vertex 20 -7 -4
      vertex 17.1716 -7 0
      vertex -20 -7 -4
    endloop
  endfacet
  facet normal 0 -1 0
    outer loop
      vertex 17.1716 -7 0
      vertex 20 -7 -4
      vertex 20 -7 -2.82843
    endloop
  endfacet
  facet normal -1 0 0
    outer loop
      vertex -8.33604 -5.63604 -4
      vertex -8.33604 5.63604 4
      vertex -8.33604 5.63604 -4
    endloop
  endfacet
  facet normal -1 -0 0
    outer loop
      vertex -8.33604 5.63604 4
      vertex -8.33604 -5.63604 -4
      vertex -8.33604 -5.63604 4
    endloop
  endfacet
  facet normal 1 -0 0
    outer loop
      vertex -11.936 -5.63604 4
      vertex -11.936 5.63604 -4
      vertex -11.936 5.63604 4
    endloop
  endfacet
  facet normal 1 0 0
    outer loop
      vertex -11.936 5.63604 -4
      vertex -11.936 -5.63604 4
      vertex -11.936 -5.63604 -4
    endloop
  endfacet
  facet normal 0 -1 0
    outer loop
      vertex -11.936 5.63604 -4
      vertex -8.33604 5.63604 4
      vertex -11.936 5.63604 4
    endloop
  endfacet
  facet normal 0 -1 -0
    outer loop
      vertex -8.33604 5.63604 4
      vertex -11.936 5.63604 -4
      vertex -8.33604 5.63604 -4
    endloop
  endfacet
  facet normal 0 1 -0
    outer loop
      vertex -8.33604 -5.63604 -4
      vertex -11.936 -5.63604 4
      vertex -8.33604 -5.63604 4
    endloop
  endfacet
  facet normal 0 1 0
    outer loop
      vertex -11.936 -5.63604 4
      vertex -8.33604 -5.63604 -4
      vertex -11.936 -5.63604 -4
    endloop
  endfacet
  facet normal 0.707111 0 -0.707103
    outer loop
      vertex 20 -7 2.82843
      vertex 17.1716 7 0
      vertex 20 7 2.82843
    endloop
  endfacet
  facet normal 0.707111 0 -0.707103
    outer loop
      vertex 17.1716 7 0
      vertex 20 -7 2.82843
      vertex 17.1716 -7 0
    endloop
  endfacet
  facet normal 0.707111 -0 0.707103
    outer loop
      vertex 17.1716 -7 0
      vertex 20 7 -2.82843
      vertex 17.1716 7 0
    endloop
  endfacet
  facet normal 0.707111 0 0.707103
    outer loop
      vertex 20 7 -2.82843
      vertex 17.1716 -7 0
      vertex 20 -7 -2.82843
    endloop
  endfacet
endsolid OpenSCAD_Model
